<svg width="64" height="18" viewBox="0 0 64 18" fill="none" xmlns="http://www.w3.org/2000/svg">
<g clip-path="url(#clip0_89_1001)">
<path d="M47.4876 10.2595H49.7188V17.7819H47.4876V10.2595ZM41.9964 17.7819V12.5947C41.9964 12.1702 41.9887 11.763 41.9734 11.3712C41.9584 10.9815 41.938 10.6118 41.9071 10.2595H43.9527L44.0341 11.6057C44.2278 11.1437 44.5384 10.7943 44.9639 10.5568C45.3867 10.3195 45.9165 10.2023 46.5483 10.2023H46.6143L46.6067 12.1777C46.4718 12.1677 46.3724 12.1602 46.3061 12.1552C46.2372 12.1502 46.1763 12.1477 46.1228 12.1477C45.5394 12.1477 45.0835 12.2874 44.7551 12.5649C44.4239 12.8419 44.2582 13.2291 44.2582 13.7211V17.7819H41.9964ZM38.6229 10.2595H40.8541V17.7819H38.6229V10.2595ZM35.0073 17.7819L34.9336 16.7079C34.6585 17.1127 34.3275 17.4174 33.9402 17.6221C33.5532 17.8269 33.1152 17.9294 32.6259 17.9294C31.6963 17.9294 30.9423 17.5721 30.3615 16.8579C29.7833 16.1435 29.4931 15.197 29.4931 14.0233C29.4931 12.8419 29.7759 11.8954 30.3437 11.1862C30.9117 10.477 31.6631 10.1223 32.5978 10.1223C33.1047 10.1223 33.5481 10.2195 33.9249 10.412C34.3046 10.6045 34.6304 10.899 34.9032 11.2935V6.99072H37.1191V16.2685C37.1191 16.6482 37.1242 16.9577 37.1367 17.1927C37.1497 17.4296 37.1701 17.6271 37.1931 17.7819H35.0073ZM31.7547 14.0358C31.7547 14.8125 31.8923 15.4145 32.1649 15.8415C32.4375 16.2685 32.8219 16.4807 33.3135 16.4807C33.8153 16.4807 34.2153 16.2635 34.5083 15.8265C34.8012 15.3895 34.9489 14.7925 34.9489 14.0358C34.9489 13.2764 34.8012 12.6747 34.5083 12.2377C34.2153 11.7982 33.8153 11.5785 33.3135 11.5785C32.8219 11.5785 32.4375 11.793 32.1649 12.2252C31.8923 12.6572 31.7547 13.2616 31.7547 14.0358ZM21.21 17.7819V11.703C21.21 11.4885 21.2049 11.2637 21.1922 11.0287C21.1797 10.7943 21.1593 10.537 21.1363 10.2595H23.2607L23.3064 11.3885C23.5942 10.934 23.9382 10.6018 24.3331 10.392C24.7278 10.1823 25.2117 10.0773 25.7849 10.0773C26.6304 10.0773 27.2571 10.3123 27.667 10.7843C28.077 11.2535 28.2835 11.9727 28.2835 12.9394V17.7819H26.0903V13.2391C26.0903 12.6772 25.9912 12.2752 25.7948 12.0304C25.5988 11.7882 25.2803 11.6657 24.8374 11.6657C24.4093 11.6657 24.0628 11.8007 23.803 12.0727C23.5407 12.3424 23.4109 12.7022 23.4109 13.1516V17.7819H21.21ZM0.0603511 17.7819V11.703C0.0603511 11.4332 0.0549969 11.1812 0.0450532 10.944C0.0345996 10.7068 0.0195566 10.4795 0.00170898 10.2595H2.11334L2.17198 11.3885C2.45958 10.934 2.80098 10.6018 3.19847 10.392C3.59316 10.1823 4.07708 10.0773 4.6477 10.0773C5.22571 10.0773 5.71218 10.2023 6.11222 10.4545C6.50946 10.7068 6.79987 11.0712 6.98344 11.5485C7.23305 11.0415 7.5589 10.6693 7.96124 10.432C8.36383 10.1948 8.87325 10.0773 9.49205 10.0773C10.3378 10.0773 10.967 10.3123 11.3798 10.7843C11.7924 11.2535 11.9986 11.9727 11.9986 12.9394V17.7819H9.78271V13.2391C9.78271 12.6772 9.68328 12.2752 9.48721 12.0304C9.29088 11.7882 8.97268 11.6657 8.5293 11.6657C8.10147 11.6657 7.75777 11.8007 7.50281 12.0727C7.24555 12.3424 7.11832 12.7022 7.11832 13.1516V17.7819H4.90241V13.2391C4.90241 12.6822 4.80552 12.2824 4.612 12.0354C4.41848 11.7882 4.10513 11.6657 3.67194 11.6657C3.24437 11.6657 2.90552 11.8007 2.65335 12.0679C2.40119 12.3377 2.27626 12.6972 2.27626 13.1516V17.7819H0.0603511ZM17.9941 16.9962C17.5472 17.3789 16.6727 17.7896 16.0714 17.9221C15.841 17.9751 15.5896 18.0001 15.3178 18.0001C14.673 18.0001 14.1335 17.7774 13.6987 17.3339C13.264 16.8882 13.0478 16.3207 13.0478 15.6312C13.0478 15.0775 13.159 14.6273 13.3795 14.2781C13.6021 13.9266 13.9149 13.6506 14.3209 13.4486C14.7224 13.2486 15.2229 13.1039 15.8183 13.0189C16.4136 12.9339 17.0314 12.8696 17.6698 12.8306V12.7891C17.6698 10.9902 15.0531 11.2142 13.9343 11.9832L13.547 10.566C14.4216 10.1635 15.2818 9.95906 16.3514 9.95906C18.2274 9.95906 19.8118 10.841 19.8118 12.9486V17.7981H17.9941V16.9962ZM17.8185 15.5285V14.0783C17.4804 14.1101 17.1115 14.1526 16.7163 14.2058C16.3213 14.2613 16.0215 14.3253 15.8167 14.3971C15.5669 14.4846 15.3741 14.6148 15.2433 14.782C15.1097 14.9518 15.0432 15.1723 15.0432 15.4483C15.0432 17.3534 17.3121 16.7349 17.8185 15.5285Z" fill="#0061AE"/>
<path fill-rule="evenodd" clip-rule="evenodd" d="M24.7673 5.46796C25.4519 6.21791 26.7257 8.25155 28.2336 8.12606C31.7667 7.83158 33.7786 4.08578 38.1403 4.35302C39.9322 4.46301 40.7759 7.4096 42.5525 7.66333C45.353 8.06356 48.0363 3.84155 52.6007 4.08378C54.477 4.18328 55.2526 7.27436 57.123 7.45285C58.8667 7.61934 61.5979 5.19547 63.9982 3.93904C63.387 2.92985 62.2514 1.35393 61.0424 1.27419C58.6622 1.1172 56.7582 4.09853 54.6649 3.57806C53.4464 3.27508 52.0586 -0.00649 50.0515 9.64211e-06C46.3362 0.012009 43.7722 3.61881 40.4873 3.90379C38.6232 4.06553 37.727 0.000509615 35.2309 0.374239C31.8148 0.88546 28.3236 3.64531 24.7673 5.46796Z" fill="url(#paint0_linear_89_1001)"/>
</g>
<defs>
<linearGradient id="paint0_linear_89_1001" x1="27.2438" y1="11.0771" x2="61.3212" y2="-3.30686" gradientUnits="userSpaceOnUse">
<stop stop-color="#F6AD02"/>
<stop offset="0.2" stop-color="#FFF000"/>
<stop offset="0.411765" stop-color="#F6AD02"/>
<stop offset="0.658824" stop-color="#FFF000"/>
<stop offset="0.788235" stop-color="#F6AD02"/>
<stop offset="1" stop-color="#FFF000"/>
</linearGradient>
<clipPath id="clip0_89_1001">
<rect width="64" height="18" fill="white"/>
</clipPath>
</defs>
</svg>
