<svg width="64" height="24" viewBox="0 0 64 24" fill="none" xmlns="http://www.w3.org/2000/svg">
<g clip-path="url(#clip0_89_1015)">
<path fill-rule="evenodd" clip-rule="evenodd" d="M22.0098 0.500977C22.756 0.994199 23.5151 1.74234 23.5151 2.46492V15.2009C23.5151 15.9145 22.8182 16.9236 22.1835 17.3261C24.4222 17.3261 26.6612 17.3261 28.9002 17.3261C33.2458 17.1527 35.8816 15.6382 36.1967 12.4629C36.4177 10.2357 35.1986 8.50338 32.2038 7.52684C33.6979 6.97803 34.5014 5.78299 34.5748 4.13434C34.7009 1.29863 31.2822 0.500977 29.1318 0.500977L22.0098 0.500977ZM26.1787 7.32048V2.01035H28.2397C30.5783 2.01035 31.6799 3.11787 31.6796 4.78728C31.6793 6.4567 30.0981 7.32048 28.1245 7.32048H26.1787ZM28.3757 15.7049H26.1787V8.82953H28.6685C32.3778 8.82953 33.4997 10.9826 33.3008 12.7424C33.1019 14.5022 31.5353 15.7049 28.3757 15.7049ZM42.1109 0.500977H38.4611C39.2726 1.37274 39.6266 1.83082 39.6266 3.18207V14.7888C39.6266 16.1256 39.0128 16.946 38.1322 17.5264H42.9888C42.2677 17.1019 41.4914 16.2675 41.4914 14.7578V4.50425C43.9448 7.66803 46.3979 10.8315 48.8514 13.9953C50.2426 15.7519 51.8551 17.2411 53.7354 18.4074V3.12074C53.7354 1.58996 54.3751 1.00634 55.2305 0.500977H50.4957C51.3538 1.11559 51.8088 1.80974 51.8088 3.05973V13.297L42.1109 0.500977ZM57.9179 17.5264C58.9001 16.8974 59.3998 16.1592 59.3998 15.2009V3.04343C59.3998 1.60593 58.9699 1.28106 58.1271 0.500977H63.7322C62.7649 1.02678 62.0862 2.10012 62.0862 3.04343V15.1673C62.0862 16.0975 62.6564 16.9498 63.4297 17.5264H57.9179Z" fill="#007697"/>
<path fill-rule="evenodd" clip-rule="evenodd" d="M0 0.500977H5.41088C5.12827 0.969282 4.91417 2.02153 5.46118 4.38574C5.94763 6.48705 7.35404 8.67907 8.82101 10.4117L6.97746 11.8729L0 3.40984V0.500977ZM7.90139 0.500977H17.4269V2.7291C16.69 2.3135 15.3464 1.91196 13.3735 2.67384C10.1904 3.90274 9.91768 7.50224 9.91768 7.50224C8.15686 5.44917 6.9983 2.08255 7.90139 0.500977ZM17.4269 5.6846V12.3166C15.2624 13.1094 12.2265 11.0474 11.4637 8.59985C10.3581 5.05178 12.9641 3.77113 14.8285 4.1222C16.2217 4.38478 17.0308 5.18627 17.4269 5.6846ZM17.4269 13.4053V17.3239H11.5888L12.7593 16.3965C11.9955 16.4863 10.4955 16.1397 9.7648 15.2536L7.70978 12.7609L9.58842 11.272C10.743 12.5006 11.8423 13.3832 12.4641 13.648C13.7951 14.2147 15.2945 14.4885 17.4269 13.4053ZM8.32893 17.3239H1.95144L5.92513 14.1751C6.25009 14.5696 6.56414 14.9507 6.8623 15.3123C7.44769 16.0221 7.93911 16.7233 8.32893 17.3239ZM0.0982834 17.3239H0V6.98857C1.5176 8.82921 3.45613 11.1806 5.1928 13.2871L0.0982834 17.3239Z" fill="#EC6722"/>
<path fill-rule="evenodd" clip-rule="evenodd" d="M60.3006 22.1784L60.6279 22.1321C60.6471 22.2528 60.6954 22.3461 60.7821 22.4202C60.8688 22.4854 60.9846 22.5227 61.1385 22.5227C61.2831 22.5227 61.399 22.4854 61.4757 22.4295C61.5432 22.3739 61.582 22.2994 61.582 22.2158C61.582 22.1506 61.5528 22.0947 61.4857 22.0484C61.4373 22.0203 61.3218 21.9832 61.1481 21.9461C60.9075 21.881 60.7341 21.8343 60.6471 21.7877C60.5508 21.7414 60.4737 21.6855 60.4257 21.611C60.3774 21.5366 60.3582 21.4529 60.3582 21.36C60.3582 21.2763 60.3774 21.1926 60.4161 21.1274C60.4545 21.053 60.5124 20.9974 60.5799 20.9508C60.6279 20.9137 60.705 20.8763 60.7917 20.8578C60.8784 20.83 60.9747 20.8115 61.0713 20.8115C61.2256 20.8115 61.3602 20.8393 61.4757 20.8763C61.5912 20.923 61.6782 20.9789 61.7362 21.053C61.7841 21.1274 61.8225 21.2207 61.8517 21.3414L61.524 21.3878C61.5049 21.2855 61.4661 21.2111 61.399 21.1555C61.3314 21.1089 61.2256 21.0811 61.1001 21.0811C60.9459 21.0811 60.84 21.0996 60.7725 21.1463C60.705 21.2018 60.6762 21.2577 60.6762 21.3229C60.6762 21.36 60.6954 21.3973 60.7149 21.4344C60.7437 21.4622 60.7821 21.4903 60.84 21.5181C60.8784 21.5277 60.9747 21.5555 61.1385 21.6018C61.3698 21.6577 61.5336 21.7043 61.6203 21.7506C61.717 21.7877 61.7937 21.8436 61.8421 21.918C61.8904 21.9832 61.9188 22.0762 61.9188 22.188C61.9188 22.2902 61.8904 22.3924 61.8225 22.4854C61.7649 22.5783 61.6687 22.6528 61.5432 22.7087C61.4277 22.7553 61.2927 22.7831 61.1385 22.7831C60.8784 22.7831 60.6858 22.7272 60.5607 22.625C60.4257 22.5227 60.339 22.3739 60.3006 22.1784ZM63.0559 21.6484C63.2776 21.6203 63.4414 21.5833 63.5569 21.5462C63.5569 21.4996 63.5569 21.4718 63.5569 21.4622C63.5569 21.3322 63.5281 21.2392 63.4606 21.1833C63.3835 21.1181 63.2584 21.0811 63.085 21.0811C63.0751 21.0811 63.0655 21.0811 63.0559 21.0811C62.9209 21.0811 62.815 21.1089 62.7475 21.1555C62.6707 21.2111 62.6128 21.3044 62.5836 21.4344L62.2564 21.3973C62.2852 21.2577 62.3331 21.1555 62.4007 21.0718C62.4682 20.9881 62.5645 20.923 62.6995 20.8856C62.8054 20.8485 62.9209 20.8207 63.0559 20.8207C63.085 20.8115 63.1138 20.8115 63.133 20.8115C63.3064 20.8115 63.4414 20.8393 63.5377 20.8763C63.6436 20.9137 63.7207 20.9603 63.769 21.0159C63.817 21.0718 63.8554 21.1463 63.8746 21.2299C63.8845 21.2855 63.8941 21.3878 63.8941 21.5277V21.9461C63.8941 22.2435 63.8941 22.439 63.9133 22.5135C63.9229 22.5876 63.9517 22.6713 64 22.7364H63.6532C63.6148 22.6713 63.5956 22.5972 63.5857 22.5039C63.4606 22.6064 63.3448 22.6809 63.2293 22.7179C63.1714 22.7364 63.1138 22.7553 63.0559 22.7646C62.998 22.7735 62.9308 22.7831 62.8633 22.7831C62.6512 22.7831 62.4874 22.7272 62.3719 22.6342C62.2564 22.532 62.1985 22.4017 62.1985 22.2435C62.1985 22.1506 62.2272 22.0669 62.266 21.9925C62.3139 21.918 62.3623 21.8529 62.4394 21.8065C62.5065 21.7599 62.5836 21.7229 62.6707 21.7043C62.7379 21.6855 62.8342 21.6669 62.9692 21.6577C62.998 21.6484 63.0271 21.6484 63.0559 21.6484ZM63.0559 22.5227C63.1426 22.5135 63.2197 22.4854 63.2872 22.4483C63.3835 22.4017 63.4606 22.3272 63.5086 22.2343C63.5377 22.1598 63.5569 22.0484 63.5569 21.9088V21.7973C63.4414 21.8436 63.2776 21.881 63.0559 21.9088C63.0463 21.9088 63.0271 21.918 63.0172 21.918C62.8825 21.9366 62.7862 21.9551 62.7283 21.9832C62.6707 22.0017 62.632 22.0391 62.6028 22.0854C62.5645 22.1321 62.5549 22.1784 62.5549 22.2343C62.5549 22.318 62.5836 22.3924 62.6512 22.4483C62.7187 22.5039 62.815 22.532 62.95 22.532C62.9887 22.532 63.0172 22.532 63.0559 22.5227ZM0.105225 22.7364V20.1416H0.644625L1.28065 21.9832C1.33856 22.1506 1.38655 22.2809 1.40574 22.3646C1.44413 22.2717 1.49244 22.1321 1.55035 21.9461L2.19598 20.1416H2.67747V22.7364H2.33066V20.5693L1.55035 22.7364H1.23234L0.452029 20.5323V22.7364H0.105225ZM5.28843 22.7364V20.1416H5.62564V22.7364H5.28843ZM3.99751 21.6203H4.54651C4.52731 21.4622 4.48893 21.3414 4.42142 21.2577C4.31519 21.137 4.18051 21.0811 4.0167 21.0811C4.00711 21.0811 4.00711 21.0811 3.99751 21.0811C3.8529 21.0811 3.72781 21.1274 3.63118 21.2207C3.52529 21.3229 3.46771 21.4529 3.45778 21.6203H3.99751ZM3.99751 22.5227C4.00711 22.5227 4.0167 22.5227 4.0263 22.5227C4.15172 22.5227 4.24802 22.4854 4.33472 22.4295C4.42142 22.3646 4.48893 22.2717 4.54651 22.1321L4.88372 22.1691C4.8258 22.3646 4.72951 22.5135 4.58522 22.625C4.44061 22.7272 4.24802 22.7831 4.0263 22.7831C4.0167 22.7831 4.00711 22.7831 3.99751 22.7831C3.72781 22.7735 3.50609 22.6901 3.35188 22.5227C3.17848 22.355 3.10138 22.1228 3.10138 21.8158C3.10138 21.4996 3.17848 21.2485 3.35188 21.0811C3.51569 20.9044 3.73741 20.8207 3.99751 20.8115C4.00711 20.8115 4.00711 20.8115 4.00711 20.8115C4.26721 20.8115 4.479 20.9044 4.64314 21.0718C4.81654 21.2392 4.89331 21.481 4.89331 21.7973C4.89331 21.8158 4.89331 21.8436 4.89331 21.881H3.99751H3.43859C3.44818 22.0854 3.51569 22.2435 3.62158 22.355C3.72781 22.4576 3.8529 22.5135 3.99751 22.5227ZM8.20748 23.4622L8.16909 23.1642C8.2462 23.183 8.30411 23.1923 8.36169 23.1923C8.4292 23.1923 8.48711 23.183 8.53509 23.1552C8.58341 23.1364 8.6122 23.0993 8.64098 23.0527C8.67011 23.0249 8.6989 22.9505 8.74721 22.8201C8.74721 22.8016 8.75681 22.7735 8.776 22.7457L8.03408 20.8578H8.39048L8.79519 21.9461C8.8531 22.0854 8.90109 22.2343 8.93981 22.3831C8.97819 22.2343 9.01691 22.0947 9.07482 21.9551L9.4888 20.8578H9.81641L9.07482 22.7735C8.99772 22.9783 8.93981 23.1179 8.89149 23.2016C8.83391 23.3038 8.7664 23.3782 8.6893 23.4249C8.61219 23.4808 8.52549 23.4993 8.4196 23.4993C8.35209 23.4993 8.28458 23.4897 8.20748 23.4622ZM6.87817 21.6484C7.09956 21.6203 7.26336 21.5833 7.37919 21.5462C7.37919 21.4996 7.37919 21.4718 7.37919 21.4622C7.37919 21.3322 7.35006 21.2392 7.28289 21.1833C7.19586 21.1181 7.07077 21.0811 6.90696 21.0811C6.89737 21.0811 6.88777 21.0811 6.87817 21.0811C6.73356 21.0811 6.63726 21.1089 6.56016 21.1555C6.49265 21.2111 6.43474 21.3044 6.39635 21.4344L6.07834 21.3973C6.10746 21.2577 6.15544 21.1555 6.22295 21.0718C6.29046 20.9881 6.38676 20.923 6.51184 20.8856C6.61807 20.8485 6.74316 20.8207 6.87817 20.8207C6.89737 20.8115 6.92616 20.8115 6.95528 20.8115C7.11875 20.8115 7.25377 20.8393 7.35999 20.8763C7.46589 20.9137 7.54266 20.9603 7.59097 21.0159C7.63929 21.0718 7.67768 21.1463 7.6972 21.2299C7.70647 21.2855 7.70647 21.3878 7.70647 21.5277V21.9461C7.70647 22.2435 7.71639 22.439 7.73559 22.5135C7.74518 22.5876 7.7743 22.6713 7.81269 22.7364H7.46589C7.43677 22.6713 7.41757 22.5972 7.40798 22.5039C7.28289 22.6064 7.16707 22.6809 7.05157 22.7179C6.99366 22.7364 6.93575 22.7553 6.87817 22.7646C6.81066 22.7735 6.75275 22.7831 6.68525 22.7831C6.47346 22.7831 6.30965 22.7272 6.19416 22.6342C6.07834 22.532 6.02076 22.4017 6.02076 22.2435C6.02076 22.1506 6.03995 22.0669 6.08826 21.9925C6.12665 21.918 6.18456 21.8529 6.25174 21.8065C6.32884 21.7599 6.40595 21.7229 6.49265 21.7043C6.56016 21.6855 6.65646 21.6669 6.79147 21.6577C6.82026 21.6484 6.84905 21.6484 6.87817 21.6484ZM6.87817 22.5227C6.95528 22.5135 7.03238 22.4854 7.10949 22.4483C7.20578 22.4017 7.27296 22.3272 7.32127 22.2343C7.35999 22.1598 7.37919 22.0484 7.37919 21.9088V21.7973C7.26336 21.8436 7.09956 21.881 6.87817 21.9088C6.85865 21.9088 6.84905 21.918 6.83945 21.918C6.70477 21.9366 6.60814 21.9551 6.55056 21.9832C6.49265 22.0017 6.44467 22.0391 6.41554 22.0854C6.38675 22.1321 6.37716 22.1784 6.37716 22.2343C6.37716 22.318 6.40595 22.3924 6.47346 22.4483C6.54096 22.5039 6.63726 22.532 6.76235 22.532C6.80107 22.532 6.83945 22.532 6.87817 22.5227ZM16.1946 22.7364V20.1416H16.5606L17.9769 22.1784V20.1416H18.3141V22.7364H17.9481L16.5414 20.6997V22.7364H16.1946ZM14.2772 22.7364V20.8578H14.6144V22.7364H14.2772ZM14.2772 20.5138V20.1416H14.6144V20.5138H14.2772ZM12.1865 22.7364V20.8578H12.4853V21.1274C12.6299 20.923 12.8417 20.8115 13.1114 20.8115C13.2272 20.8115 13.3331 20.8393 13.4294 20.8763C13.5257 20.9137 13.6028 20.9693 13.6511 21.0344C13.6991 21.0996 13.7378 21.1833 13.757 21.2763C13.7666 21.3322 13.7762 21.4344 13.7762 21.5833V22.7364H13.439V21.5925C13.439 21.4622 13.4294 21.3692 13.4003 21.3044C13.3811 21.2392 13.3331 21.1833 13.2656 21.1463C13.1984 21.1089 13.1309 21.0903 13.0343 21.0903C12.8996 21.0903 12.7742 21.137 12.6779 21.2207C12.572 21.3044 12.5237 21.4718 12.5237 21.7136V22.7364H12.1865ZM10.8476 21.6484C11.0689 21.6203 11.2328 21.5833 11.3482 21.5462C11.3482 21.4996 11.3482 21.4718 11.3482 21.4622C11.3482 21.3322 11.3195 21.2392 11.2519 21.1833C11.1652 21.1181 11.0402 21.0811 10.8764 21.0811C10.8668 21.0811 10.8568 21.0811 10.8476 21.0811C10.7029 21.0811 10.5971 21.1089 10.5295 21.1555C10.462 21.2111 10.4041 21.3044 10.3657 21.4344L10.0477 21.3973C10.0765 21.2577 10.1248 21.1555 10.1923 21.0718C10.2598 20.9881 10.3561 20.923 10.4812 20.8856C10.5875 20.8485 10.7125 20.8207 10.8476 20.8207C10.8668 20.8115 10.8955 20.8115 10.9247 20.8115C11.0881 20.8115 11.2232 20.8393 11.3291 20.8763C11.4353 20.9137 11.5124 20.9603 11.5604 21.0159C11.6087 21.0718 11.6375 21.1463 11.6663 21.2299C11.6759 21.2855 11.6759 21.3878 11.6759 21.5277V21.9461C11.6759 22.2435 11.6858 22.439 11.6954 22.5135C11.7146 22.5876 11.7434 22.6713 11.7821 22.7364H11.4353C11.4062 22.6713 11.3774 22.5972 11.3678 22.5039C11.2519 22.6064 11.1365 22.6809 11.021 22.7179C10.9631 22.7364 10.9051 22.7553 10.8476 22.7646C10.7801 22.7735 10.7221 22.7831 10.655 22.7831C10.4428 22.7831 10.279 22.7272 10.1635 22.6342C10.0477 22.532 9.98982 22.4017 9.98982 22.2435C9.98982 22.1506 10.0093 22.0669 10.0573 21.9925C10.096 21.918 10.1536 21.8529 10.2211 21.8065C10.2982 21.7599 10.3753 21.7229 10.462 21.7043C10.5295 21.6855 10.6258 21.6669 10.7513 21.6577C10.7897 21.6484 10.8184 21.6484 10.8476 21.6484ZM10.8476 22.5227C10.9247 22.5135 11.0018 22.4854 11.0689 22.4483C11.1748 22.4017 11.2423 22.3272 11.2907 22.2343C11.3291 22.1598 11.3482 22.0484 11.3482 21.9088V21.7973C11.2328 21.8436 11.0594 21.881 10.8476 21.9088C10.8284 21.9088 10.8184 21.918 10.8088 21.918C10.6738 21.9366 10.5775 21.9551 10.52 21.9832C10.462 22.0017 10.4141 22.0391 10.3849 22.0854C10.3561 22.1321 10.337 22.1784 10.337 22.2343C10.337 22.318 10.3753 22.3924 10.4428 22.4483C10.5104 22.5039 10.6067 22.532 10.7317 22.532C10.7705 22.532 10.8088 22.532 10.8476 22.5227ZM19.6626 21.6203H20.2119C20.1928 21.4622 20.154 21.3414 20.0869 21.2577C19.9806 21.137 19.8459 21.0811 19.6725 21.0811C19.6725 21.0811 19.6725 21.0811 19.6626 21.0811C19.5183 21.0811 19.3929 21.1274 19.2966 21.2207C19.1907 21.3229 19.1328 21.4529 19.1232 21.6203H19.6626ZM19.6626 22.5227C19.6725 22.5227 19.6821 22.5227 19.6917 22.5227C19.8168 22.5227 19.9135 22.4854 20.0002 22.4295C20.0869 22.3646 20.154 22.2717 20.2023 22.1321L20.5492 22.1691C20.4912 22.3646 20.3949 22.5135 20.2503 22.625C20.1061 22.7272 19.9135 22.7831 19.6917 22.7831C19.6821 22.7831 19.6725 22.7831 19.6626 22.7831C19.3929 22.7735 19.1715 22.6901 19.0077 22.5227C18.8439 22.355 18.7572 22.1228 18.7572 21.8158C18.7572 21.4996 18.8439 21.2485 19.0173 21.0811C19.1811 20.9044 19.4028 20.8207 19.6626 20.8115H19.6725C19.9326 20.8115 20.1448 20.9044 20.3082 21.0718C20.472 21.2392 20.5588 21.481 20.5588 21.7973C20.5588 21.8158 20.5588 21.8436 20.5588 21.881H19.6626H19.104C19.1136 22.0854 19.1715 22.2435 19.287 22.355C19.3837 22.4576 19.5183 22.5135 19.6626 22.5227ZM21.7054 22.4761C21.8596 22.4761 21.9847 22.4202 22.0906 22.3087C22.1968 22.1972 22.2448 22.0203 22.2448 21.7788C22.2448 21.5462 22.1869 21.3692 22.081 21.2577C21.9847 21.137 21.8596 21.0811 21.7054 21.0811C21.5512 21.0811 21.4357 21.137 21.3295 21.2485C21.2236 21.3692 21.1756 21.5366 21.1756 21.7692C21.1756 22.011 21.2236 22.188 21.3295 22.3087C21.4258 22.4202 21.5512 22.4761 21.7054 22.4761ZM21.7054 23.2386C21.8401 23.2293 21.9463 23.2016 22.0234 23.1457C22.1098 23.0898 22.1581 23.0064 22.1968 22.9038C22.2064 22.8387 22.216 22.6994 22.216 22.4949C22.081 22.6528 21.9076 22.7272 21.7054 22.7364C21.6958 22.7364 21.6862 22.7364 21.6763 22.7364C21.4066 22.7364 21.2044 22.6435 21.0502 22.4576C20.9059 22.2717 20.838 22.0484 20.838 21.7877C20.838 21.611 20.8672 21.4437 20.9343 21.2948C21.0022 21.137 21.0985 21.0252 21.2236 20.9415C21.3586 20.8578 21.5029 20.8115 21.6763 20.8115C21.6862 20.8115 21.6958 20.8115 21.7054 20.8115C21.9271 20.8207 22.1005 20.9137 22.2448 21.0811V20.8578H22.5532V22.4854C22.5532 22.7735 22.5241 22.9875 22.4569 23.1086C22.399 23.2293 22.3027 23.3223 22.1677 23.3967C22.0426 23.4622 21.8884 23.4993 21.7054 23.4993C21.6958 23.4993 21.6862 23.4993 21.6667 23.4993C21.4357 23.4993 21.2524 23.4526 21.1081 23.3504C20.9635 23.2479 20.896 23.0993 20.896 22.8946L21.2236 22.9412C21.2332 23.0342 21.2719 23.1086 21.3295 23.1457C21.4165 23.2108 21.532 23.2386 21.6667 23.2386C21.6862 23.2386 21.6958 23.2386 21.7054 23.2386ZM29.3454 22.7364V20.1416H29.7017V21.4344L31.0314 20.1416H31.5132L30.3858 21.1926L31.5612 22.7364H31.0989L30.1353 21.4251L29.7017 21.8436V22.7364H29.3454ZM27.3125 22.7364V22.3739H27.6881V22.7364C27.6881 22.876 27.6689 22.9783 27.611 23.0623C27.563 23.1457 27.4859 23.2108 27.38 23.2479L27.2933 23.1179C27.3608 23.0898 27.4088 23.0434 27.4475 22.9875C27.4763 22.9319 27.4955 22.8479 27.4955 22.7364H27.3125ZM26.3972 22.7364V20.8578H26.7248V22.7364H26.3972ZM26.3972 20.5138V20.1416H26.7248V20.5138H26.3972ZM25.135 22.7364V20.8578H25.4339V21.1463C25.511 21.0067 25.5781 20.923 25.6457 20.8763C25.7036 20.8393 25.7807 20.8115 25.8578 20.8115C25.9637 20.8115 26.0792 20.8485 26.195 20.9137L26.0792 21.2111C26.0021 21.1648 25.9157 21.1463 25.8386 21.1463C25.7711 21.1463 25.7036 21.1648 25.6457 21.2111C25.5881 21.2485 25.5494 21.3044 25.5206 21.3788C25.4822 21.4996 25.4627 21.6203 25.4627 21.7506V22.7364H25.135ZM23.8441 21.6203H24.3835C24.3739 21.4622 24.3355 21.3414 24.268 21.2577C24.1621 21.137 24.0175 21.0811 23.8537 21.0811H23.8441C23.6995 21.0811 23.5744 21.1274 23.4685 21.2207C23.3722 21.3229 23.3143 21.4529 23.3047 21.6203H23.8441ZM23.8441 22.5227C23.8537 22.5227 23.8633 22.5227 23.8729 22.5227C23.9887 22.5227 24.0946 22.4854 24.1813 22.4295C24.268 22.3646 24.3355 22.2717 24.3835 22.1321L24.7211 22.1691C24.6728 22.3646 24.5765 22.5135 24.4222 22.625C24.2776 22.7272 24.0946 22.7831 23.8729 22.7831C23.8633 22.7831 23.8537 22.7831 23.8441 22.7831C23.5744 22.7735 23.3527 22.6901 23.1889 22.5227C23.0251 22.355 22.9384 22.1228 22.9384 21.8158C22.9384 21.4996 23.0251 21.2485 23.1988 21.0811C23.3623 20.9044 23.5744 20.8207 23.8441 20.8115C23.8441 20.8115 23.8441 20.8115 23.8537 20.8115C24.1138 20.8115 24.3259 20.9044 24.4898 21.0718C24.6536 21.2392 24.7403 21.481 24.7403 21.7973C24.7403 21.8158 24.7403 21.8436 24.7303 21.881H23.8441H23.2852C23.2951 22.0854 23.3527 22.2435 23.4685 22.355C23.5648 22.4576 23.6899 22.5135 23.8441 22.5227ZM32.6016 21.6203H33.1509C33.1317 21.4622 33.093 21.3414 33.0255 21.2577C32.9196 21.137 32.7849 21.0811 32.6115 21.0811C32.6115 21.0811 32.6115 21.0811 32.6016 21.0811C32.4573 21.0811 32.3319 21.1274 32.2356 21.2207C32.1297 21.3229 32.0718 21.4529 32.0622 21.6203H32.6016ZM32.6016 22.5227C32.6115 22.5227 32.6211 22.5227 32.6307 22.5227C32.7462 22.5227 32.8521 22.4854 32.9388 22.4295C33.0255 22.3646 33.093 22.2717 33.1413 22.1321L33.4881 22.1691C33.4302 22.3646 33.3339 22.5135 33.1893 22.625C33.0354 22.7272 32.8521 22.7831 32.6307 22.7831C32.6211 22.7831 32.6115 22.7831 32.6016 22.7831C32.3319 22.7735 32.1105 22.6901 31.9563 22.5227C31.7925 22.355 31.7058 22.1228 31.7058 21.8158C31.7058 21.4996 31.7925 21.2485 31.9659 21.0811C32.1201 20.9044 32.3415 20.8207 32.6016 20.8115H32.6115C32.8716 20.8115 33.0834 20.9044 33.2472 21.0718C33.411 21.2392 33.4977 21.481 33.4977 21.7973C33.4977 21.8158 33.4977 21.8436 33.4977 21.881H32.6016H32.0526C32.0526 22.0854 32.1105 22.2435 32.226 22.355C32.3223 22.4576 32.4477 22.5135 32.6016 22.5227ZM34.7215 20.8207C34.7407 20.8115 34.7503 20.8115 34.7599 20.8115C34.885 20.8115 34.9912 20.8393 35.1067 20.8856C35.2126 20.9322 35.2993 20.9974 35.3668 21.0811C35.4343 21.1648 35.4922 21.267 35.5306 21.3878C35.569 21.5088 35.5885 21.6392 35.5885 21.7692C35.5885 22.0947 35.5018 22.3461 35.338 22.5135C35.1742 22.6901 34.9717 22.7831 34.7407 22.7831C34.7407 22.7831 34.7311 22.7831 34.7215 22.7831C34.5094 22.7735 34.336 22.6809 34.2009 22.5039V22.7364H33.9025V20.1416H34.2301V21.0718C34.3552 20.9137 34.5286 20.8207 34.7215 20.8207ZM34.7215 22.5227C34.8658 22.5135 34.9912 22.4576 35.0875 22.3365C35.1934 22.2158 35.2513 22.0391 35.2513 21.7973C35.2513 21.5555 35.203 21.3692 35.0971 21.2577C35.0008 21.137 34.8754 21.0811 34.7311 21.0811C34.7311 21.0811 34.7311 21.0811 34.7215 21.0811C34.5865 21.0811 34.461 21.137 34.3552 21.2577C34.2493 21.3788 34.2009 21.5555 34.2009 21.7877C34.2009 22.011 34.2301 22.1691 34.2972 22.2717C34.4035 22.439 34.5381 22.5227 34.7215 22.5227ZM38.0836 22.7364V20.8578H38.3725V21.1274C38.5171 20.923 38.7293 20.8115 38.999 20.8115C39.1144 20.8115 39.2207 20.8393 39.317 20.8763C39.4229 20.9137 39.4904 20.9693 39.5387 21.0344C39.5867 21.0996 39.6251 21.1833 39.6446 21.2763C39.6542 21.3322 39.6638 21.4344 39.6638 21.5833V22.7364H39.3362V21.5925C39.3362 21.4622 39.317 21.3692 39.2974 21.3044C39.2687 21.2392 39.2207 21.1833 39.1532 21.1463C39.0953 21.1089 39.0182 21.0903 38.9219 21.0903C38.7868 21.0903 38.6617 21.137 38.5655 21.2207C38.4596 21.3044 38.4112 21.4718 38.4112 21.7136V22.7364H38.0836ZM36.7348 21.6484C36.9565 21.6203 37.1203 21.5833 37.2358 21.5462C37.2358 21.4996 37.2358 21.4718 37.2358 21.4622C37.2358 21.3322 37.207 21.2392 37.1395 21.1833C37.0528 21.1181 36.9274 21.0811 36.7639 21.0811C36.754 21.0811 36.7447 21.0811 36.7348 21.0811C36.5905 21.0811 36.4939 21.1089 36.4168 21.1555C36.3496 21.2111 36.2917 21.3044 36.2533 21.4344L35.9353 21.3973C35.9641 21.2577 36.0124 21.1555 36.0796 21.0718C36.1471 20.9881 36.2434 20.923 36.3688 20.8856C36.4747 20.8485 36.6001 20.8207 36.7348 20.8207C36.754 20.8115 36.7831 20.8115 36.8119 20.8115C36.9757 20.8115 37.1107 20.8393 37.2166 20.8763C37.3225 20.9137 37.3996 20.9603 37.4479 21.0159C37.4959 21.0718 37.5346 21.1463 37.5538 21.2299C37.5634 21.2855 37.5634 21.3878 37.5634 21.5277V21.9461C37.5634 22.2435 37.573 22.439 37.5922 22.5135C37.6021 22.5876 37.6309 22.6713 37.6693 22.7364H37.3225C37.2937 22.6713 37.2745 22.5972 37.2649 22.5039C37.1395 22.6064 37.0237 22.6809 36.9082 22.7179C36.8506 22.7364 36.7927 22.7553 36.7348 22.7646C36.6673 22.7735 36.6097 22.7831 36.5422 22.7831C36.3304 22.7831 36.1663 22.7272 36.0508 22.6342C35.9353 22.532 35.8774 22.4017 35.8774 22.2435C35.8774 22.1506 35.8969 22.0669 35.9449 21.9925C35.9833 21.918 36.0412 21.8529 36.1087 21.8065C36.1858 21.7599 36.2629 21.7229 36.3496 21.7043C36.4168 21.6855 36.5134 21.6669 36.6481 21.6577C36.6772 21.6484 36.706 21.6484 36.7348 21.6484ZM36.7348 22.5227C36.8119 22.5135 36.889 22.4854 36.9565 22.4483C37.0624 22.4017 37.1299 22.3272 37.1779 22.2343C37.2166 22.1598 37.2358 22.0484 37.2358 21.9088V21.7973C37.1203 21.8436 36.9469 21.881 36.7348 21.9088C36.7156 21.9088 36.706 21.918 36.6964 21.918C36.5614 21.9366 36.4651 21.9551 36.4075 21.9832C36.3496 22.0017 36.3013 22.0391 36.2725 22.0854C36.2434 22.1321 36.2341 22.1784 36.2341 22.2343C36.2341 22.318 36.2629 22.3924 36.3304 22.4483C36.3976 22.5039 36.4939 22.532 36.6193 22.532C36.6577 22.532 36.6964 22.532 36.7348 22.5227ZM40.9163 22.4761C41.0702 22.4761 41.1956 22.4202 41.2919 22.3087C41.3981 22.1972 41.4461 22.0203 41.4461 21.7788C41.4461 21.5462 41.3981 21.3692 41.2919 21.2577C41.186 21.137 41.0606 21.0811 40.9163 21.0811C40.9163 21.0811 40.9163 21.0811 40.9067 21.0811C40.7621 21.0811 40.6367 21.137 40.5308 21.2485C40.4345 21.3692 40.3766 21.5366 40.3766 21.7692C40.3766 22.011 40.4345 22.188 40.5308 22.3087C40.6367 22.4202 40.7621 22.4761 40.9163 22.4761ZM40.9163 23.2386C41.051 23.2293 41.1569 23.2016 41.234 23.1457C41.3111 23.0898 41.369 23.0064 41.3981 22.9038C41.4173 22.8387 41.4269 22.6994 41.4269 22.4949C41.2823 22.6528 41.1185 22.7272 40.9163 22.7364C40.9067 22.7364 40.8968 22.7364 40.8872 22.7364C40.6175 22.7364 40.4057 22.6435 40.2611 22.4576C40.1165 22.2717 40.0394 22.0484 40.0394 21.7877C40.0394 21.611 40.0781 21.4437 40.1456 21.2948C40.2128 21.137 40.3091 21.0252 40.4345 20.9415C40.5596 20.8578 40.7138 20.8115 40.8872 20.8115C40.8968 20.8115 40.9067 20.8115 40.9163 20.8115C41.1281 20.8207 41.3111 20.9137 41.4557 21.0811V20.8578H41.7641V22.4854C41.7641 22.7735 41.7254 22.9875 41.6678 23.1086C41.6003 23.2293 41.504 23.3223 41.369 23.3967C41.2439 23.4622 41.0993 23.4993 40.9163 23.4993C40.9067 23.4993 40.8872 23.4993 40.8776 23.4993C40.6463 23.4993 40.4537 23.4526 40.319 23.3504C40.1744 23.2479 40.1069 23.0993 40.1069 22.8946L40.4249 22.9412C40.4441 23.0342 40.4825 23.1086 40.5404 23.1457C40.6271 23.2108 40.7333 23.2386 40.8776 23.2386C40.8872 23.2386 40.9067 23.2386 40.9163 23.2386ZM43.0067 22.4761C43.1609 22.4761 43.286 22.4202 43.3827 22.3087C43.4886 22.1972 43.5369 22.0203 43.5369 21.7788C43.5369 21.5462 43.4886 21.3692 43.3827 21.2577C43.2768 21.137 43.1513 21.0811 43.0067 21.0811H42.9971C42.8525 21.0811 42.7274 21.137 42.6215 21.2485C42.5249 21.3692 42.4673 21.5366 42.4673 21.7692C42.4673 22.011 42.5249 22.188 42.6215 22.3087C42.7274 22.4202 42.8525 22.4761 43.0067 22.4761ZM43.0067 23.2386C43.1417 23.2293 43.2476 23.2016 43.3247 23.1457C43.4019 23.0898 43.4598 23.0064 43.4886 22.9038C43.5077 22.8387 43.5173 22.6994 43.5173 22.4949C43.3731 22.6528 43.2089 22.7272 43.0067 22.7364C42.9971 22.7364 42.9875 22.7364 42.9779 22.7364C42.7082 22.7364 42.4961 22.6435 42.3518 22.4576C42.2072 22.2717 42.1301 22.0484 42.1301 21.7877C42.1301 21.611 42.1685 21.4437 42.236 21.2948C42.3035 21.137 42.3998 21.0252 42.5249 20.9415C42.6503 20.8578 42.8045 20.8115 42.9779 20.8115C42.9875 20.8115 42.9971 20.8115 43.0067 20.8115C43.2189 20.8207 43.4019 20.9137 43.5465 21.0811V20.8578H43.845V22.4854C43.845 22.7735 43.8162 22.9875 43.7583 23.1086C43.6907 23.2293 43.5944 23.3223 43.4598 23.3967C43.3343 23.4622 43.1805 23.4993 43.0067 23.4993C42.9971 23.4993 42.9779 23.4993 42.9683 23.4993C42.737 23.4993 42.5444 23.4526 42.4094 23.3504C42.2651 23.2479 42.188 23.0993 42.1976 22.8946L42.5156 22.9412C42.5348 23.0342 42.5732 23.1086 42.6311 23.1457C42.7082 23.2108 42.8237 23.2386 42.9683 23.2386C42.9779 23.2386 42.9971 23.2386 43.0067 23.2386ZM45.0879 21.6484C45.3096 21.6203 45.4827 21.5833 45.5889 21.5462C45.5889 21.4996 45.5889 21.4718 45.5889 21.4622C45.5889 21.3322 45.5598 21.2392 45.5022 21.1833C45.4155 21.1181 45.2901 21.0811 45.1263 21.0811C45.1167 21.0811 45.0975 21.0811 45.0879 21.0811C44.9529 21.0811 44.847 21.1089 44.7795 21.1555C44.7024 21.2111 44.6544 21.3044 44.6157 21.4344L44.2881 21.3973C44.3268 21.2577 44.3751 21.1555 44.4327 21.0718C44.5002 20.9881 44.6061 20.923 44.7315 20.8856C44.8374 20.8485 44.9529 20.8207 45.0879 20.8207C45.1167 20.8115 45.1455 20.8115 45.1746 20.8115C45.3384 20.8115 45.4734 20.8393 45.5793 20.8763C45.6852 20.9137 45.7524 20.9603 45.8103 21.0159C45.8586 21.0718 45.8874 21.1463 45.9066 21.2299C45.9165 21.2855 45.9261 21.3878 45.9261 21.5277V21.9461C45.9261 22.2435 45.9357 22.439 45.9453 22.5135C45.9645 22.5876 45.9837 22.6713 46.032 22.7364H45.6852C45.6468 22.6713 45.6276 22.5972 45.6177 22.5039C45.4926 22.6064 45.3768 22.6809 45.2613 22.7179C45.2133 22.7364 45.1455 22.7553 45.0879 22.7646C45.03 22.7735 44.9628 22.7831 44.9049 22.7831C44.6832 22.7831 44.5194 22.7272 44.4039 22.6342C44.2976 22.532 44.2401 22.4017 44.2401 22.2435C44.2401 22.1506 44.2593 22.0669 44.2977 21.9925C44.346 21.918 44.4039 21.8529 44.4714 21.8065C44.5386 21.7599 44.6256 21.7229 44.712 21.7043C44.7699 21.6855 44.8758 21.6669 45.0012 21.6577C45.03 21.6484 45.0591 21.6484 45.0879 21.6484ZM45.0879 22.5227C45.1746 22.5135 45.2517 22.4854 45.3192 22.4483C45.4155 22.4017 45.4926 22.3272 45.5406 22.2343C45.5697 22.1598 45.5889 22.0484 45.5889 21.9088V21.7973C45.4734 21.8436 45.3096 21.881 45.0879 21.9088C45.0783 21.9088 45.0684 21.918 45.0492 21.918C44.9145 21.9366 44.8182 21.9551 44.7603 21.9832C44.712 22.0017 44.664 22.0391 44.6349 22.0854C44.6061 22.1321 44.5869 22.1784 44.5869 22.2343C44.5869 22.318 44.6256 22.3924 44.6928 22.4483C44.7507 22.5039 44.8566 22.532 44.982 22.532C45.0204 22.532 45.0591 22.532 45.0879 22.5227ZM48.5271 22.7364V20.8578H48.826V21.1274C48.9706 20.923 49.1728 20.8115 49.4428 20.8115C49.5583 20.8115 49.6738 20.8393 49.7701 20.8763C49.8664 20.9137 49.9435 20.9693 49.9918 21.0344C50.0398 21.0996 50.0689 21.1833 50.0881 21.2763C50.1073 21.3322 50.1073 21.4344 50.1073 21.5833V22.7364H49.7797V21.5925C49.7797 21.4622 49.7701 21.3692 49.7413 21.3044C49.7125 21.2392 49.6738 21.1833 49.6063 21.1463C49.5391 21.1089 49.462 21.0903 49.375 21.0903C49.2307 21.0903 49.1149 21.137 49.009 21.2207C48.9031 21.3044 48.8551 21.4718 48.8551 21.7136V22.7364H48.5271ZM47.1786 21.6484C47.4 21.6203 47.5734 21.5833 47.6797 21.5462C47.6797 21.4996 47.6797 21.4718 47.6797 21.4622C47.6797 21.3322 47.6505 21.2392 47.5926 21.1833C47.5063 21.1181 47.3808 21.0811 47.217 21.0811C47.1978 21.0811 47.1882 21.0811 47.1786 21.0811C47.0436 21.0811 46.9377 21.1089 46.8702 21.1555C46.7931 21.2111 46.7451 21.3044 46.7064 21.4344L46.3788 21.3973C46.4079 21.2577 46.4559 21.1555 46.5234 21.0718C46.5909 20.9881 46.6968 20.923 46.8222 20.8856C46.9278 20.8485 47.0436 20.8207 47.1786 20.8207C47.2074 20.8115 47.2362 20.8115 47.2653 20.8115C47.4292 20.8115 47.5638 20.8393 47.6697 20.8763C47.766 20.9137 47.8431 20.9603 47.8914 21.0159C47.9494 21.0718 47.9781 21.1463 47.9973 21.2299C48.0069 21.2855 48.0169 21.3878 48.0169 21.5277V21.9461C48.0169 22.2435 48.0261 22.439 48.0361 22.5135C48.0457 22.5876 48.0744 22.6713 48.1228 22.7364H47.776C47.7372 22.6713 47.718 22.5972 47.7084 22.5039C47.5834 22.6064 47.4675 22.6809 47.3521 22.7179C47.2941 22.7364 47.2362 22.7553 47.1786 22.7646C47.1207 22.7735 47.0532 22.7831 46.9956 22.7831C46.7739 22.7831 46.6101 22.7272 46.4943 22.6342C46.3788 22.532 46.3209 22.4017 46.3209 22.2435C46.3209 22.1506 46.35 22.0669 46.3884 21.9925C46.4367 21.918 46.4943 21.8529 46.5618 21.8065C46.6293 21.7599 46.7064 21.7229 46.8027 21.7043C46.8606 21.6855 46.9569 21.6669 47.0919 21.6577C47.1207 21.6484 47.1495 21.6484 47.1786 21.6484ZM47.1786 22.5227C47.2653 22.5135 47.3421 22.4854 47.4096 22.4483C47.5063 22.4017 47.5834 22.3272 47.6313 22.2343C47.6601 22.1598 47.6797 22.0484 47.6797 21.9088V21.7973C47.5638 21.8436 47.4 21.881 47.1786 21.9088C47.1691 21.9088 47.1591 21.918 47.1399 21.918C47.0049 21.9366 46.9086 21.9551 46.851 21.9832C46.7931 22.0017 46.7544 22.0391 46.7256 22.0854C46.6968 22.1321 46.6776 22.1784 46.6776 22.2343C46.6776 22.318 46.716 22.3924 46.7739 22.4483C46.8414 22.5039 46.9377 22.532 47.0724 22.532C47.1111 22.532 47.1399 22.532 47.1786 22.5227ZM52.6411 20.1416H52.6991C52.9013 20.1416 53.0651 20.1697 53.1901 20.2253C53.3156 20.2719 53.4119 20.3556 53.4794 20.4671C53.5565 20.5693 53.5853 20.6904 53.5853 20.8115C53.5853 20.9137 53.5565 21.0252 53.4986 21.1181C53.4311 21.2207 53.3348 21.2948 53.2097 21.36C53.3735 21.4066 53.4986 21.481 53.5853 21.5925C53.6723 21.7043 53.7203 21.8343 53.7203 21.9832C53.7203 22.1039 53.6915 22.225 53.6432 22.3272C53.5853 22.4295 53.5178 22.5135 53.441 22.5691C53.3639 22.625 53.2673 22.662 53.1518 22.6994C53.0267 22.7272 52.8821 22.7364 52.7087 22.7364H52.6411H51.6874V20.1416H52.6411ZM52.6411 21.2299C52.7858 21.2299 52.9013 21.2207 52.9688 21.2018C53.0555 21.174 53.123 21.137 53.171 21.0718C53.2193 21.0159 53.2385 20.9415 53.2385 20.8485C53.2385 20.7648 53.2193 20.6811 53.171 20.616C53.1326 20.5508 53.0651 20.5138 52.988 20.4856C52.9204 20.4671 52.805 20.4486 52.6411 20.4486C52.622 20.4486 52.6024 20.4486 52.5832 20.4486H52.0438V21.2299H52.622C52.6316 21.2299 52.6315 21.2299 52.6411 21.2299ZM52.6411 22.4295H52.7087C52.8241 22.4295 52.9108 22.4295 52.9592 22.4202C53.0363 22.4017 53.1038 22.3831 53.1614 22.3461C53.2193 22.318 53.258 22.2717 53.2964 22.2065C53.3348 22.1413 53.3543 22.0669 53.3543 21.9832C53.3543 21.8902 53.3252 21.8065 53.2772 21.7321C53.2193 21.6577 53.1518 21.611 53.0555 21.5833C52.9688 21.5555 52.8337 21.5366 52.6703 21.5366H52.6411H52.0438V22.4295H52.6411ZM56.2541 22.7364V20.8578H56.5526V21.1274C56.6972 20.923 56.8998 20.8115 57.1695 20.8115C57.2945 20.8115 57.4004 20.8393 57.4967 20.8763C57.5934 20.9137 57.6701 20.9693 57.7185 21.0344C57.7668 21.0996 57.8052 21.1833 57.8244 21.2763C57.834 21.3322 57.8435 21.4344 57.8435 21.5833V22.7364H57.5067V21.5925C57.5067 21.4622 57.4967 21.3692 57.468 21.3044C57.4488 21.2392 57.4004 21.1833 57.3329 21.1463C57.2658 21.1089 57.1887 21.0903 57.102 21.0903C56.9669 21.0903 56.8419 21.137 56.7356 21.2207C56.6393 21.3044 56.5817 21.4718 56.5817 21.7136V22.7364H56.2541ZM54.9053 21.6484C55.1267 21.6203 55.3001 21.5833 55.4063 21.5462C55.4159 21.4996 55.4159 21.4718 55.4159 21.4622C55.4159 21.3322 55.3772 21.2392 55.3196 21.1833C55.2329 21.1181 55.1075 21.0811 54.944 21.0811C54.9341 21.0811 54.9149 21.0811 54.9053 21.0811C54.7703 21.0811 54.6644 21.1089 54.5969 21.1555C54.5198 21.2111 54.4718 21.3044 54.4331 21.4344L54.1151 21.3973C54.1442 21.2577 54.1922 21.1555 54.2597 21.0718C54.3272 20.9881 54.4235 20.923 54.5489 20.8856C54.6548 20.8485 54.7703 20.8207 54.9053 20.8207C54.9341 20.8115 54.9632 20.8115 54.992 20.8115C55.1558 20.8115 55.2905 20.8393 55.3967 20.8763C55.5026 20.9137 55.5797 20.9603 55.628 21.0159C55.676 21.0718 55.7048 21.1463 55.7243 21.2299C55.7336 21.2855 55.7435 21.3878 55.7435 21.5277V21.9461C55.7435 22.2435 55.7531 22.439 55.7627 22.5135C55.7819 22.5876 55.8107 22.6713 55.8494 22.7364H55.5026C55.4738 22.6713 55.4447 22.5972 55.4351 22.5039C55.3196 22.6064 55.1942 22.6809 55.0883 22.7179C55.0304 22.7364 54.9725 22.7553 54.9053 22.7646C54.8474 22.7735 54.7799 22.7831 54.7223 22.7831C54.5102 22.7831 54.3464 22.7272 54.2309 22.6342C54.1151 22.532 54.0575 22.4017 54.0575 22.2435C54.0575 22.1506 54.0767 22.0669 54.1151 21.9925C54.1634 21.918 54.2213 21.8529 54.2885 21.8065C54.3563 21.7599 54.4427 21.7229 54.5297 21.7043C54.5873 21.6855 54.6932 21.6669 54.8186 21.6577C54.8474 21.6484 54.8762 21.6484 54.9053 21.6484ZM54.9053 22.5227C54.992 22.5135 55.0688 22.4854 55.1366 22.4483C55.2329 22.4017 55.31 22.3272 55.358 22.2343C55.3967 22.1598 55.4063 22.0484 55.4063 21.9088V21.7973C55.3001 21.8436 55.1267 21.881 54.9053 21.9088C54.8957 21.9088 54.8861 21.918 54.8669 21.918C54.7319 21.9366 54.6356 21.9551 54.5873 21.9832C54.5297 22.0017 54.4814 22.0391 54.4526 22.0854C54.4235 22.1321 54.4043 22.1784 54.4043 22.2343C54.4043 22.318 54.4427 22.3924 54.5102 22.4483C54.5681 22.5039 54.674 22.532 54.7994 22.532C54.8378 22.532 54.8762 22.532 54.9053 22.5227ZM59.0961 22.4761C59.2407 22.4761 59.3754 22.4202 59.472 22.3087C59.5779 22.1972 59.6262 22.0203 59.6262 21.7788C59.6262 21.5462 59.5779 21.3692 59.472 21.2577C59.3661 21.137 59.2407 21.0811 59.0961 21.0811C59.0865 21.0811 59.0865 21.0811 59.0865 21.0811C58.9419 21.0811 58.8168 21.137 58.7109 21.2485C58.6047 21.3692 58.5567 21.5366 58.5567 21.7692C58.5567 22.011 58.6047 22.188 58.7109 22.3087C58.8168 22.4202 58.9419 22.4761 59.0961 22.4761ZM59.0961 23.2386C59.2311 23.2293 59.3274 23.2016 59.4045 23.1457C59.4912 23.0898 59.5491 23.0064 59.5779 22.9038C59.5971 22.8387 59.5971 22.6994 59.5971 22.4949C59.4624 22.6528 59.2986 22.7272 59.0961 22.7364C59.0865 22.7364 59.0673 22.7364 59.0577 22.7364C58.788 22.7364 58.5855 22.6435 58.4412 22.4576C58.2966 22.2717 58.2195 22.0484 58.2195 21.7877C58.2195 21.611 58.2483 21.4437 58.3158 21.2948C58.3833 21.137 58.4892 21.0252 58.6143 20.9415C58.7397 20.8578 58.8939 20.8115 59.0673 20.8115C59.0769 20.8115 59.0865 20.8115 59.0961 20.8115C59.3082 20.8207 59.4912 20.9137 59.6358 21.0811V20.8578H59.9343V22.4854C59.9343 22.7735 59.9055 22.9875 59.8476 23.1086C59.7801 23.2293 59.6838 23.3223 59.5491 23.3967C59.4237 23.4622 59.2695 23.4993 59.0961 23.4993C59.0769 23.4993 59.0673 23.4993 59.0577 23.4993C58.8264 23.4993 58.6338 23.4526 58.4892 23.3504C58.3449 23.2479 58.2774 23.0993 58.287 22.8946L58.6047 22.9412C58.6242 23.0342 58.653 23.1086 58.7205 23.1457C58.7976 23.2108 58.9131 23.2386 59.0577 23.2386C59.0673 23.2386 59.0769 23.2386 59.0961 23.2386Z" fill="#007697"/>
</g>
<defs>
<clipPath id="clip0_89_1015">
<rect width="64" height="23" fill="white" transform="translate(0 0.5)"/>
</clipPath>
</defs>
</svg>
