<svg width="64" height="22" viewBox="0 0 64 22" fill="none" xmlns="http://www.w3.org/2000/svg">
<g clip-path="url(#clip0_89_947)">
<path fill-rule="evenodd" clip-rule="evenodd" d="M10.6113 1.2207C10.5901 1.2207 10.5692 1.2207 10.5483 1.2207C7.73781 1.2207 5.03256 1.87778 2.4116 3.20305C1.34845 5.74706 0.748576 8.33351 0.716897 10.9732C0.674754 13.5913 1.21156 16.2731 2.40114 19.0083C5.13777 20.2059 7.87441 20.8209 10.6113 20.8528C13.348 20.8209 16.0849 20.2059 18.8215 19.0083C20.0111 16.2731 20.5479 13.5913 20.5058 10.9732C20.4741 8.33351 19.8742 5.74706 18.8111 3.20305C16.1901 1.87778 13.4849 1.2207 10.6744 1.2207C10.6535 1.2207 10.6326 1.2207 10.6113 1.2207Z" fill="#FEFEFE"/>
<path d="M1.96946 2.6202C4.72731 1.19951 7.59038 0.5 10.5482 0.5C10.5691 0.5 10.59 0.5 10.6113 0.5C10.6325 0.5 10.6534 0.5 10.6743 0.5C13.6321 0.5 16.4952 1.19951 19.253 2.6202L19.4216 2.8002C20.5478 5.47153 21.1899 8.19583 21.2215 10.9626C21.2215 11.0155 21.2215 11.058 21.2215 11.111V11.3018C21.2111 13.9626 20.6426 16.6763 19.4216 19.4326L19.2321 19.6126C16.3586 20.8954 13.4848 21.5419 10.6113 21.5738C7.73773 21.5419 4.86391 20.8954 1.99039 19.6126L1.80089 19.4326C0.579925 16.6763 0.0114395 13.9626 0.000976562 11.3018V11.111C0.000976562 11.058 0.000976562 11.0155 0.000976562 10.9626C0.032656 8.19583 0.674673 5.47153 1.80089 2.8002L1.96946 2.6202ZM10.6113 1.22088C10.59 1.22088 10.5691 1.22088 10.5482 1.22088C7.73773 1.22088 5.03248 1.87796 2.41152 3.20323C1.34837 5.74724 0.748494 8.33369 0.716815 10.9734C0.674673 13.5915 1.21148 16.2733 2.40106 19.0085C5.13769 20.2061 7.87433 20.821 10.6113 20.8529C13.3479 20.821 16.0848 20.2061 18.8215 19.0085C20.011 16.2733 20.5478 13.5915 20.5057 10.9734C20.474 8.33369 19.8741 5.74724 18.811 3.20323C16.19 1.87796 13.4848 1.22088 10.6743 1.22088C10.6534 1.22088 10.6325 1.22088 10.6113 1.22088Z" fill="#003399"/>
<path fill-rule="evenodd" clip-rule="evenodd" d="M10.8007 16.92C10.6534 14.8952 10.7481 12.7859 10.148 10.8565C9.59023 9.05442 7.4744 8.02622 7.43225 6.04388C7.39011 4.49616 8.55876 2.70464 10.7481 2.70464C12.8006 2.69411 14.0742 4.19938 14.2215 5.87441C14.4006 7.81432 12.0638 9.11794 11.4532 10.9624C10.8217 12.8494 11.0007 14.9377 10.8007 16.92Z" fill="#003399"/>
<path fill-rule="evenodd" clip-rule="evenodd" d="M11.6114 16.4327C11.5271 14.6731 11.5271 12.9875 12.0113 11.4928C12.5481 9.79665 13.6639 8.36572 15.3691 7.89918C16.5374 7.58133 18.2533 8.95929 17.9796 10.3691C17.7479 11.5033 16.6217 12.8391 14.8113 12.9875C13.9691 13.0618 13.6113 13.74 13.0849 14.1325C15.4429 13.8992 16.969 12.9661 18.0322 11.9909C18.19 12.8177 18.2952 14.2065 17.6532 14.6836C16.3901 15.5845 15.2217 14.8531 13.7374 15.2772C12.9059 15.521 12.3903 16.051 11.6114 16.4327Z" fill="#003399"/>
<path fill-rule="evenodd" clip-rule="evenodd" d="M10.0007 16.4327C10.0955 14.6731 10.085 12.9875 9.61126 11.4928C9.07445 9.79665 7.95869 8.36572 6.25353 7.89918C5.08517 7.58133 3.35879 8.95929 3.64303 10.3691C3.87467 11.5033 5.00088 12.8391 6.81155 12.9875C7.64306 13.0618 8.0113 13.74 8.53764 14.1325C6.16924 13.8992 4.65357 12.9661 3.59042 11.9909C3.43261 12.8177 3.3274 14.2065 3.96941 14.6836C5.23252 15.5845 6.40088 14.8531 7.88516 15.2772C8.71668 15.521 9.2218 16.051 10.0007 16.4327Z" fill="#003399"/>
<path fill-rule="evenodd" clip-rule="evenodd" d="M15.6111 19.051V18.7648L15.8215 18.7118L15.6111 18.3937V17.8636L16.5586 19.1889L16.2217 19.2735L15.9901 18.9448L15.6111 19.051ZM15.6111 17.8636V18.3937L15.4637 18.1818L15.4007 18.8178L15.6111 18.7648V19.051L15.369 19.104L15.3268 19.4962L14.99 19.5811L15.2112 17.8531L15.548 17.7682L15.6111 17.8636ZM12.4742 19.9733V19.6976H12.5481C12.6637 19.687 12.7375 19.6765 12.7689 19.6657C12.8111 19.6551 12.8532 19.6232 12.8744 19.5916C12.9058 19.5492 12.9166 19.5068 12.9166 19.4538C12.9058 19.4008 12.8954 19.3584 12.8637 19.3265C12.8428 19.2949 12.8006 19.2735 12.7585 19.263C12.7163 19.2524 12.6216 19.2524 12.4742 19.263V18.9872C12.5585 18.9872 12.6111 18.9767 12.6323 18.9767C12.6849 18.9662 12.7271 18.9343 12.7585 18.9027C12.7902 18.8708 12.8006 18.8283 12.7902 18.7753C12.7902 18.7224 12.7689 18.6799 12.7375 18.6589C12.7163 18.6269 12.6742 18.6059 12.6111 18.6059C12.5902 18.6059 12.5481 18.6059 12.4742 18.6164V18.3407C12.5902 18.3302 12.6742 18.3302 12.7271 18.3407C12.7902 18.3407 12.8532 18.3621 12.9058 18.3937C12.9584 18.415 13.0006 18.4572 13.0427 18.5105C13.0744 18.5634 13.0953 18.6269 13.1058 18.701C13.1165 18.7753 13.0953 18.8497 13.0636 18.9132C13.0323 18.9767 12.9796 19.0297 12.9058 19.0721C13.011 19.0935 13.0953 19.1356 13.1479 19.1994C13.2113 19.263 13.2427 19.3373 13.2531 19.4327C13.2531 19.5068 13.2427 19.5811 13.2217 19.6551C13.1901 19.7295 13.1479 19.7825 13.0953 19.8354C13.0323 19.8779 12.9692 19.9095 12.8849 19.9309C12.8323 19.9414 12.6954 19.9519 12.4954 19.9733H12.4742ZM14.4636 19.0827L14.79 19.1251C14.7691 19.3054 14.7165 19.4538 14.6217 19.5597C14.527 19.6551 14.3901 19.7295 14.2215 19.7611C14.0111 19.793 13.8216 19.7506 13.6638 19.6341C13.4952 19.5068 13.4005 19.3265 13.3479 19.0721C13.306 18.8072 13.3374 18.5845 13.4534 18.415C13.5586 18.2453 13.7269 18.1393 13.9481 18.0969C14.148 18.065 14.3058 18.0969 14.4532 18.1923C14.5375 18.2453 14.611 18.3302 14.6636 18.4572L14.3584 18.5845C14.327 18.5105 14.2741 18.4467 14.2111 18.415C14.1375 18.3726 14.0637 18.3621 13.9794 18.3726C13.8638 18.3937 13.7795 18.4572 13.7164 18.5529C13.6533 18.6589 13.6426 18.7967 13.6743 18.9872C13.7164 19.1889 13.7795 19.3265 13.8638 19.4008C13.9481 19.4751 14.0533 19.5068 14.1689 19.4857C14.2532 19.4643 14.3163 19.4219 14.3689 19.3584C14.4218 19.2949 14.4532 19.1994 14.4636 19.0827ZM12.4742 18.3407V18.6164C12.4324 18.6164 12.3902 18.6269 12.3376 18.6269L12.1481 18.6483L12.1795 19.0191L12.4007 18.9981C12.4216 18.9981 12.4533 18.9981 12.4742 18.9872V19.263C12.4742 19.263 12.4742 19.263 12.4638 19.263L12.2112 19.2843L12.2429 19.7187L12.4742 19.6976V19.9733L11.9479 20.0263L11.8005 18.4042L12.4428 18.3512C12.4533 18.3407 12.4638 18.3407 12.4742 18.3407ZM10.4427 19.4113V19.1356C10.5165 19.1356 10.5586 19.1251 10.59 19.1146C10.6322 19.104 10.6639 19.0721 10.6955 19.0405C10.7165 18.9981 10.7269 18.9556 10.7269 18.9132C10.7377 18.8497 10.7165 18.8072 10.6848 18.7648C10.6534 18.7224 10.6112 18.701 10.5586 18.6905C10.527 18.6905 10.4953 18.6799 10.4427 18.6799V18.4042C10.6008 18.4042 10.6955 18.415 10.7481 18.4361C10.8429 18.4572 10.9164 18.5105 10.9795 18.595C11.0428 18.6799 11.0742 18.7859 11.0638 18.9132C11.0638 19.0086 11.0428 19.0935 11.0112 19.1675C10.969 19.2313 10.9269 19.2843 10.8743 19.3265C10.8112 19.3584 10.7586 19.3794 10.6955 19.4008C10.6322 19.4113 10.5482 19.4113 10.4427 19.4113ZM10.4427 18.4042V18.6799C10.4113 18.6799 10.3691 18.6799 10.3165 18.6799L10.1587 18.6694V19.1356H10.327C10.3691 19.1356 10.4113 19.1356 10.4427 19.1356V19.4113C10.4218 19.4113 10.3901 19.4113 10.3587 19.4113H10.148L10.1375 20.0263L9.81113 20.0154L9.84281 18.3937L10.3587 18.4042C10.3901 18.4042 10.4218 18.4042 10.4427 18.4042ZM7.40088 19.2524V18.7543C7.49562 18.7753 7.55869 18.7753 7.59037 18.7753C7.63251 18.7648 7.6639 18.7543 7.69558 18.7224C7.71651 18.6905 7.73772 18.6589 7.74819 18.6059C7.75865 18.5529 7.74819 18.5105 7.72697 18.468C7.70604 18.4256 7.6639 18.4042 7.6113 18.3831C7.59037 18.3726 7.51655 18.3621 7.40088 18.3407V18.065L7.53777 18.0864C7.70604 18.1183 7.82172 18.1499 7.89554 18.1923C7.96907 18.2348 8.02197 18.2983 8.05336 18.3831C8.08503 18.4572 8.0955 18.5529 8.07457 18.6483C8.05336 18.7648 8.00075 18.8602 7.91647 18.9237C7.84293 18.9872 7.72697 19.0191 7.57962 19.0191C7.64298 19.0721 7.69558 19.1251 7.72697 19.1781C7.76911 19.2419 7.81126 19.3373 7.86386 19.4751L8.00075 19.8249L7.62176 19.7506L7.45348 19.3584C7.43227 19.3265 7.4218 19.2843 7.40088 19.2524ZM8.32714 18.2453L8.64277 18.2772L8.56924 19.157C8.55877 19.2949 8.55877 19.3903 8.55877 19.4219C8.56924 19.4962 8.60062 19.5492 8.64277 19.5916C8.69537 19.6446 8.75873 19.6657 8.85348 19.6765C8.94823 19.6871 9.02176 19.6657 9.0639 19.6341C9.1165 19.6022 9.14818 19.5597 9.16911 19.5068C9.17957 19.4538 9.19033 19.3584 9.20079 19.2313L9.27432 18.3302L9.60071 18.3621L9.52717 19.21C9.51642 19.4113 9.49549 19.5492 9.46382 19.6232C9.44289 19.6976 9.40075 19.7716 9.3586 19.8141C9.306 19.8673 9.23247 19.9095 9.14818 19.9309C9.07436 19.9628 8.96915 19.9628 8.84272 19.9519C8.68491 19.9414 8.56924 19.9095 8.49541 19.8673C8.42188 19.8249 8.35852 19.7716 8.31667 19.7187C8.27453 19.6551 8.25331 19.5916 8.24285 19.5281C8.23239 19.4327 8.23239 19.2949 8.24285 19.1146L8.32714 18.2453ZM5.76924 18.7224L5.83231 18.4572L6.51676 18.6375L6.34819 19.263C6.2639 19.3159 6.15869 19.3478 6.01134 19.3584C5.87445 19.3689 5.74831 19.3584 5.62189 19.3265C5.45361 19.2843 5.31672 19.21 5.22197 19.1146C5.11676 19.0086 5.0534 18.8813 5.02201 18.7434C5.0008 18.595 5.0008 18.4467 5.04294 18.2983C5.08508 18.1393 5.15861 18.0015 5.26411 17.885C5.35886 17.7788 5.485 17.7152 5.63235 17.6836C5.74831 17.6517 5.88491 17.6623 6.03256 17.7047C6.22176 17.7577 6.36911 17.832 6.4534 17.9485C6.53768 18.0545 6.57983 18.1923 6.56936 18.3407L6.24298 18.3196C6.24298 18.2348 6.22176 18.1604 6.16916 18.0969C6.11655 18.0439 6.05348 17.9909 5.95874 17.9699C5.82185 17.938 5.70617 17.9485 5.60096 18.012C5.49546 18.0758 5.42193 18.2029 5.36932 18.3726C5.31672 18.5634 5.32718 18.7118 5.37979 18.8283C5.44286 18.9448 5.5376 19.0191 5.66403 19.051C5.73756 19.0721 5.80092 19.0721 5.87445 19.0721C5.94827 19.0616 6.01134 19.0405 6.07441 19.0191L6.12701 18.8178L5.76924 18.7224ZM7.40088 18.065L6.85332 17.9699L6.57983 19.5703L6.89546 19.6232L7.01142 18.9556L7.08495 18.9662C7.15878 18.9767 7.21138 18.9981 7.24277 19.0086C7.27445 19.0297 7.29537 19.0616 7.32705 19.0935C7.33752 19.1251 7.3692 19.1781 7.40088 19.2524V18.7543C7.3692 18.7543 7.33752 18.7434 7.29537 18.7434L7.06403 18.701L7.1271 18.2983L7.37966 18.3407C7.39012 18.3407 7.40088 18.3407 7.40088 18.3407V18.065Z" fill="#003399"/>
<path fill-rule="evenodd" clip-rule="evenodd" d="M57.5676 16.0829V13.0934H58.8729V7.83564L57.5676 10.4645V3.90285H62.6939L63.9991 19.0191H58.8729V16.0829H57.5676ZM57.5676 3.90285V10.4645L56.2624 13.0934H57.5676V16.0829H55.1048L54.0942 18.8602H50.9152V15.4045L54.4625 7.69779H53.7362L55.7572 3.90285H57.5676ZM50.9152 8.93818L52.5047 5.14295L50.9152 4.25261V8.93818ZM38.2734 7.48589C38.3472 7.05125 38.3472 6.62715 38.2734 6.22442V7.48589ZM50.9152 4.25261V8.93818L50.7048 9.44687C47.568 7.18911 42.9367 9.2455 42.6734 11.6306C42.4103 14.1216 44.2945 16.1359 49.1049 14.6306L47.4523 19.0826C41.1051 19.793 38.6419 17.2595 38.2734 14.3019V12.6272C38.3681 11.8533 38.5684 11.1005 38.8419 10.401C41.9683 2.57787 47.0416 4.33749 48.968 4.1891L49.2522 3.31982L50.9152 4.25261ZM50.9152 15.4045L49.3257 18.8602H50.9152V15.4045ZM32.5685 18.7648C35.9684 18.0863 39.3052 13.9732 35.9579 10.6978C37.2632 9.99799 38.0734 8.73682 38.2734 7.48589V6.22442C38.0421 4.92051 37.042 3.86041 35.1578 3.82851L32.5685 3.77553V6.68013H33.6421C34.7895 6.68013 34.6422 9.6696 33.2105 9.6696H32.5685V11.9593C34.1158 12.2561 33.5683 14.4184 32.5685 15.0863V18.7648ZM38.2734 14.3019V12.6272C38.2103 13.1888 38.2103 13.7508 38.2734 14.3019ZM28.0843 3.68012L25.9896 7.77213L26.9264 7.69779L24.4001 18.8602H31.6315C31.9474 18.8602 32.2526 18.8283 32.5685 18.7648V15.0863C32.3895 15.2136 32.1895 15.2877 31.9895 15.2877H29.3895L30.2527 11.9274H32.2C32.3369 11.9274 32.4633 11.9379 32.5685 11.9593V9.6696H30.7578L31.4841 6.68013H32.5685V3.77553L28.0843 3.68012Z" fill="#003399"/>
</g>
<defs>
<clipPath id="clip0_89_947">
<rect width="64" height="21" fill="white" transform="translate(0 0.5)"/>
</clipPath>
</defs>
</svg>
