<?xml version="1.0" encoding="UTF-8"?>
<svg version="1.1" xmlns="http://www.w3.org/2000/svg" width="512" height="512">
<path d="M0 0 C1.06992187 0.474375 2.13984375 0.94875 3.2421875 1.4375 C19.75466286 9.51889971 30.60523995 22.82755446 37 40 C42.04989298 56.40332369 40.1684722 75.33785725 32.5 90.5 C27.78556487 99.28619702 21.20332441 107.25000626 13 113 C13.82242187 113.47308594 14.64484375 113.94617188 15.4921875 114.43359375 C23.10484671 118.94317132 29.69731421 123.71966415 36 130 C36.62390625 130.60070312 37.2478125 131.20140625 37.890625 131.8203125 C53.85772364 148.43472594 55.62448662 169.18018058 55.25 190.9375 C55.2298865 192.98891468 55.21164439 195.0403486 55.1953125 197.09179688 C55.15174241 202.06168285 55.08298787 207.03062238 55 212 C59.62 212 64.24 212 69 212 C69.33 210.35 69.66 208.7 70 207 C71.12671901 204.69879585 72.27551984 202.51888158 73.5625 200.3125 C73.91820068 199.69818115 74.27390137 199.0838623 74.64038086 198.45092773 C77.94079069 192.88053306 81.70832779 187.85221715 86 183 C86.79277344 182.08347656 86.79277344 182.08347656 87.6015625 181.1484375 C101.684308 165.95572191 123.19377421 156.53426779 143.67578125 155.62109375 C163.88424242 155.10746941 179.39781466 158.01370371 197 168 C197.85207031 168.48339844 198.70414062 168.96679688 199.58203125 169.46484375 C219.60759293 181.91316588 232.36357223 202.4224447 238 225 C243.50508718 248.91304043 237.73201134 272.44719923 225.2421875 292.875 C212.05083347 312.5086432 192.93403118 325.46958649 170 331 C146.65046729 335.36756753 122.16226624 331.74288527 102.12255859 318.78613281 C87.28476378 308.49676872 76.56580038 295.39640022 69 279 C69 278.01 69 277.02 69 276 C64.38 276 59.76 276 55 276 C55.0825 277.134375 55.165 278.26875 55.25 279.4375 C55.25 286.75467509 51.36103451 293.31743988 47 299 C46.071875 299.598125 45.14375 300.19625 44.1875 300.8125 C43.465625 301.534375 42.74375 302.25625 42 303 C42.39945982 310.68206514 44.13673577 318.1910995 45.66796875 325.71459961 C45.94269994 327.07892479 46.21707351 328.44332203 46.49111938 329.80778503 C47.07876951 332.73008652 47.6687849 335.65189653 48.26065063 338.57334709 C49.19798526 343.20080387 50.12912457 347.82949415 51.05932617 352.45838928 C53.37026306 363.95320984 55.68930543 375.44639323 58.0098877 386.93927002 C59.814844 395.87895016 61.61755076 404.81907176 63.4136591 413.76053435 C64.3366329 418.35402363 65.26413176 422.94656783 66.19515991 427.53843105 C66.77516192 430.40412642 67.35109041 433.27062967 67.92594528 436.13736153 C68.31727136 438.08263475 68.71342735 440.02693444 69.10977173 441.97119141 C71.75358029 455.20249969 73.76273395 466.76328087 66.3125 478.875 C61.6099826 485.28435705 54.94615194 490.51393449 47 492 C38.09138744 492.75244798 29.77110716 493.00459301 22 488 C21.29359375 487.56429688 20.5871875 487.12859375 19.859375 486.6796875 C3.18400979 475.37749553 2.96886522 448.29145952 -0.58986902 430.12257528 C-1.29820537 426.51196479 -2.01183973 422.90240205 -2.72506714 419.29275513 C-4.5298073 410.15443942 -6.32770742 401.01478289 -8.125 391.875 C-10.07317965 381.96837432 -12.02265184 372.06201123 -13.97964752 362.15712273 C-14.82560074 357.87432316 -15.66774991 353.59079894 -16.50692391 349.30666614 C-16.90309775 347.28724724 -17.30106256 345.26819123 -17.6998291 343.24928284 C-18.18473758 340.79418206 -18.66685248 338.33852714 -19.14559937 335.88221741 C-19.36133606 334.7948378 -19.57707275 333.70745819 -19.79934692 332.58712769 C-19.984041 331.64740049 -20.16873508 330.7076733 -20.35902596 329.73946953 C-21.05818546 326.75132019 -21.98941682 323.89619099 -23 321 C-23.21276958 321.74930251 -23.42553917 322.49860502 -23.64475632 323.27061367 C-28.82924939 341.52689961 -34.02110849 359.78107591 -39.2211113 378.0329504 C-41.7356455 386.85956993 -44.24770815 395.68687872 -46.75390625 404.51586914 C-48.93904528 412.21378865 -51.1288694 419.91035731 -53.3242619 427.60535914 C-54.4858701 431.67748965 -55.6451674 435.7502454 -56.79885101 439.82462883 C-57.88637684 443.66508413 -58.98019199 447.50369326 -60.07870865 451.34101868 C-60.47926673 452.74433956 -60.87758768 454.14830139 -61.2734108 455.55296516 C-65.0751311 469.03488337 -68.48857492 480.81633246 -80.62109375 488.73828125 C-88.87820683 493.11766963 -99.02623479 493.4132309 -108.0546875 491.27734375 C-116.88337108 487.96323305 -122.53344148 482.19317512 -127 474 C-133.21246393 457.71354164 -126.68618018 439.32087455 -123.00365067 423.05829978 C-122.14775876 419.26175585 -121.31125542 415.46093867 -120.47241211 411.66059875 C-118.87702594 404.44656386 -117.26439583 397.23649986 -115.64547443 390.02771455 C-113.83381716 381.9565326 -112.04238288 373.88090823 -110.25232315 365.80491388 C-103.60961232 335.84502723 -96.85957337 305.91098122 -90 276 C-100.23 276 -110.46 276 -121 276 C-121 297.12 -121 318.24 -121 340 C-136.84 340 -152.68 340 -169 340 C-169 329.44 -169 318.88 -169 308 C-174.28 308 -179.56 308 -185 308 C-185 318.56 -185 329.12 -185 340 C-200.84 340 -216.68 340 -233 340 C-232.81695312 335.33746094 -232.63390625 330.67492187 -232.4453125 325.87109375 C-232.3783497 322.88521026 -232.31808817 319.90205484 -232.28125 316.91601562 C-232.22234941 312.19178787 -232.14127645 307.47655892 -231.91308594 302.75708008 C-230.51127242 285.56997629 -230.51127242 285.56997629 -236.23571777 270.05596924 C-241.50759481 265.23402225 -247.39400313 261.84838688 -253.896698 258.94398499 C-256 258 -256 258 -257 257 C-257.79409472 250.45814002 -257.85822381 243.82300371 -257.69921875 237.2421875 C-257.67432373 236.16565918 -257.64942871 235.08913086 -257.6237793 233.97998047 C-256.81618207 230.12184673 -255.511784 228.65221033 -252.5625 226.0625 C-251.56880402 225.62636887 -250.57510803 225.19023773 -249.55130005 224.7408905 C-246.7164957 223.35123491 -245.06630275 222.32806193 -242.76771545 220.33244324 C-229.76580399 209.50896443 -215.24556768 210.5450244 -199.20815921 210.88466668 C-195.35807524 210.95425999 -191.50785775 210.95995655 -187.65724182 210.97294617 C-180.39310247 211.00689763 -173.13082252 211.0968289 -165.8674956 211.20779055 C-157.58699142 211.33149758 -149.30639008 211.39140973 -141.02518928 211.44644034 C-124.01569342 211.56087729 -107.00811585 211.75614001 -90 212 C-90 204.74 -90 197.48 -90 190 C-92.97 189.01 -92.97 189.01 -96 188 C-98.81883796 186.6333613 -101.49344927 185.03481469 -104.1875 183.4375 C-104.93926514 182.99204834 -105.69103027 182.54659668 -106.46557617 182.08764648 C-112.80707283 178.25282615 -118.47562668 173.94547192 -124 169 C-124.98484375 168.14664063 -125.9696875 167.29328125 -126.984375 166.4140625 C-148.81354493 147.24850911 -165.41462521 120.2208045 -169 91 C-169.21199781 87.24924087 -169.27624383 83.50613929 -169.3125 79.75 C-169.35600586 78.27080078 -169.35600586 78.27080078 -169.40039062 76.76171875 C-169.48015208 67.44803443 -167.1570972 59.44156367 -160.703125 52.53125 C-152.47956115 45.13758709 -143.76554365 43.41809933 -132.98828125 43.6875 C-124.60258669 44.16182635 -117.597063 47.77469523 -112 54 C-106.44557069 61.3862092 -104.78418419 68.74028289 -103.625 77.75 C-101.9131365 89.83105195 -98.54317819 98.31051543 -91 108 C-90.13955078 109.12728516 -90.13955078 109.12728516 -89.26171875 110.27734375 C-83.54948985 117.23721151 -76.4070737 122.01687036 -69 127 C-65.7173068 125.50923566 -63.06922559 123.61379679 -60.25 121.375 C-59.45078125 120.74335938 -58.6515625 120.11171875 -57.828125 119.4609375 C-57.22484375 118.97882813 -56.6215625 118.49671875 -56 118 C-58.42647732 116.04246953 -60.85712899 114.10620709 -63.359375 112.24609375 C-76.85582557 102.03554373 -86.47921413 87.93711125 -89 71 C-89.99883405 58.78306011 -90.12137479 46.32494484 -85 35 C-84.525625 33.92878906 -84.05125 32.85757813 -83.5625 31.75390625 C-75.4732498 15.24483552 -62.17486912 4.39566256 -45 -2 C-31.0853272 -6.30117326 -13.31519737 -6.09524021 0 0 Z M161.625 235.625 C159.42092107 240.20270239 159.2028361 244.00552411 160 249 C162.32968931 253.83858548 165.16141452 256.67031069 170 259 C174.99447589 259.7971639 178.79729761 259.57907893 183.375 257.375 C186.95907713 254.13226355 189.59535241 251.53524104 190.3828125 246.6015625 C190.63883919 240.91777006 189.93626932 237.35061345 186 233 C181.64938655 229.06373068 178.08222994 228.36116081 172.3984375 228.6171875 C167.46475896 229.40464759 164.86773645 232.04092287 161.625 235.625 Z " fill="#010101" transform="translate(265,12)"/>
<path d="M0 0 C12.37996123 9.61673934 21.9245824 21.35426671 27.25 36.25 C27.54777344 37.06855469 27.84554687 37.88710937 28.15234375 38.73046875 C33.99421892 57.81751712 30.24893805 77.82485471 21.09765625 95.09765625 C18.50447184 99.52196877 15.66673442 103.43129683 12.25 107.25 C11.59515625 107.99765625 10.9403125 108.7453125 10.265625 109.515625 C-1.47738269 122.11578653 -19.29057007 130.79173951 -36.6328125 131.5859375 C-56.04294637 131.92449704 -74.75331953 127.25033098 -89.3125 113.75 C-91.16400303 111.94967375 -92.9564608 110.10966046 -94.75 108.25 C-95.41386719 107.61707031 -96.07773437 106.98414063 -96.76171875 106.33203125 C-103.75308722 99.21497525 -111.75 85.34164258 -111.75 75.25 C-120.33 75.25 -128.91 75.25 -137.75 75.25 C-137.75 64.69 -137.75 54.13 -137.75 43.25 C-129.17 43.25 -120.59 43.25 -111.75 43.25 C-111.42 40.94 -111.09 38.63 -110.75 36.25 C-110.01318359 34.12939453 -110.01318359 34.12939453 -109.1484375 32.3828125 C-108.82689697 31.72933838 -108.50535645 31.07586426 -108.17407227 30.40258789 C-107.82787842 29.73348389 -107.48168457 29.06437988 -107.125 28.375 C-106.765271 27.67173584 -106.40554199 26.96847168 -106.03491211 26.24389648 C-103.14887113 20.7405346 -99.94518267 15.85665048 -95.75 11.25 C-95.07324219 10.49332031 -94.39648438 9.73664063 -93.69921875 8.95703125 C-69.29085495 -16.92537228 -29.05811022 -20.2303299 0 0 Z M-31.125 50.875 C-33.32907893 55.45270239 -33.5471639 59.25552411 -32.75 64.25 C-30.42031069 69.08858548 -27.58858548 71.92031069 -22.75 74.25 C-17.75552411 75.0471639 -13.95270239 74.82907893 -9.375 72.625 C-5.79092287 69.38226355 -3.15464759 66.78524104 -2.3671875 61.8515625 C-2.11116081 56.16777006 -2.81373068 52.60061345 -6.75 48.25 C-11.10061345 44.31373068 -14.66777006 43.61116081 -20.3515625 43.8671875 C-25.28524104 44.65464759 -27.88226355 47.29092287 -31.125 50.875 Z " fill="#328DF5" transform="translate(457.75,196.75)"/>
<path d="M0 0 C21.12 0 42.24 0 64 0 C64.99 3.96 65.98 7.92 67 12 C71.39710565 21.11595073 76.81823471 26.22451354 86.0625 30.375 C90.02069724 31.21716963 93.97309939 31.6429705 98 32 C100.20195546 40.48549179 102.09325882 49.00219256 103.8190918 57.59619141 C104.08533003 58.91181126 104.35178555 60.22738716 104.61843872 61.54292297 C105.33394518 65.07731485 106.04573759 68.61244367 106.75626731 72.14783907 C107.20156271 74.36322392 107.64747268 76.57848427 108.09354591 78.79371262 C109.49304805 85.74499096 110.89012833 92.69674981 112.28384465 99.64919055 C113.88565183 107.63945823 115.495684 115.62801076 117.11274785 123.61520445 C118.36801784 129.81801168 119.61584153 136.02228832 120.85812122 142.22771013 C121.59788729 145.9221128 122.34072289 149.61583167 123.09140587 153.30803299 C123.79679043 156.77843942 124.49285016 160.25059155 125.18204117 163.72424889 C125.55487596 165.59140477 125.93718703 167.45666076 126.31987 169.32182312 C129.50822031 185.52228237 129.50822031 185.52228237 126.86328125 191.62109375 C120.10564621 199.53620784 120.10564621 199.53620784 114.93359375 200.30859375 C109.1029747 200.63416131 105.70672152 199.41468032 101 196 C96.3439101 191.50423616 95.78072562 186.57764829 94.7109375 180.453125 C94.28620477 178.18528911 93.86001025 175.91772666 93.43261719 173.65039062 C93.09079407 171.80586304 93.09079407 171.80586304 92.74206543 169.92407227 C91.54362136 163.58665115 90.24130298 157.27095415 88.94425201 150.95310974 C88.14840388 147.0712258 87.35985885 143.18785712 86.5703125 139.3046875 C85.60234862 134.54755755 84.63355527 129.79059991 83.66210938 125.03417969 C82.70166688 120.33063765 81.74422476 115.62649208 80.7890625 110.921875 C80.63178932 110.147798 80.47451614 109.37372101 80.31247711 108.57618713 C78.51519904 99.71497242 76.76651208 90.8466272 75.10449219 81.95898438 C74.94963789 81.1320319 74.79478359 80.30507942 74.63523674 79.45306778 C73.89968699 75.51739308 73.17073759 71.58066326 72.45254517 67.64178467 C67.06318849 38.29449686 67.06318849 38.29449686 48.1875 15.890625 C43.56656056 12.85185504 39.30789748 10.61646073 34 9 C33.52029877 10.74985354 33.04126076 12.49988891 32.5625 14.25 C32.29566406 15.22453125 32.02882813 16.1990625 31.75390625 17.203125 C31.14455416 19.46372653 30.55761745 21.72622009 30 24 C30.969375 24.2475 31.93875 24.495 32.9375 24.75 C36 26 36 26 36.79093361 27.66857338 C37.08196505 30.91404218 36.29710868 33.41802319 35.40756226 36.55282593 C35.2241011 37.20946216 35.04063995 37.8660984 34.85161936 38.5426327 C34.23390787 40.74392773 33.60209289 42.94091675 32.97021484 45.13818359 C32.52447097 46.7149971 32.07955504 48.29204486 31.63540649 49.86930847 C30.42555367 54.15513795 29.20298888 58.43724243 27.97731352 62.71857023 C26.95497371 66.2934929 25.93850022 69.87007261 24.92192423 73.44663775 C22.52275269 81.88666731 20.11297117 90.32361831 17.69677734 98.75878906 C15.20551535 107.4567794 12.73272138 116.159869 10.26891553 124.86567247 C8.15244825 132.34153966 6.02421777 139.81398943 3.88662875 147.28384459 C2.61032481 151.74443877 1.33856811 156.20620339 0.078228 160.67133713 C-1.10822059 164.87281534 -2.30932362 169.06982829 -3.52170181 173.26389503 C-3.96352105 174.80146856 -4.40019386 176.34053196 -4.83124542 177.88115883 C-5.42203174 179.98950129 -6.03143992 182.09159145 -6.6456604 184.19320679 C-7.14952491 185.95802178 -7.14952491 185.95802178 -7.6635685 187.75848961 C-9.65770222 192.59525465 -12.3805065 195.89579988 -16.75 198.875 C-20.97587863 200.33780414 -24.57683724 200.70675312 -29 200 C-33.86979684 197.61104306 -36.31913003 194.66669958 -39 190 C-41.79271602 181.62185195 -38.8564235 173.25948284 -36.8125 165 C-36.15910324 162.29805708 -35.51285601 159.59442379 -34.8671875 156.890625 C-34.7055864 156.21694885 -34.54398529 155.54327271 -34.37748718 154.84918213 C-32.9431851 148.83951155 -31.66488224 142.80474549 -30.4375 136.75 C-28.78341952 128.63722573 -27.00755632 120.562839 -25.125 112.5 C-22.91321461 103.01402443 -20.76611522 93.51606566 -18.6875 84 C-18.54508881 83.34852997 -18.40267761 82.69705994 -18.25595093 82.02584839 C-16.39956825 73.52409556 -14.57460172 65.01586433 -12.765625 56.50390625 C-12.37542452 54.67122021 -11.98520637 52.83853793 -11.5949707 51.00585938 C-10.85002192 47.50667036 -10.10948997 44.0065904 -9.37182617 40.50585938 C-6.48626837 26.9308173 -3.24248774 13.51036558 0 0 Z " fill="#FCFCFC" transform="translate(192,288)"/>
<path d="M0 0 C12.08254711 9.16874958 20.64243468 21.75132685 23.4296875 36.84375 C23.70928229 40.45182418 23.71348128 44.04496571 23.7043457 47.66259766 C23.70945663 48.7172673 23.71456757 49.77193695 23.71983337 50.85856628 C23.73366983 54.32504029 23.73277762 57.79131426 23.73046875 61.2578125 C23.7343578 63.67581251 23.7386929 66.09381185 23.74345398 68.5118103 C23.75090255 73.57039611 23.75063393 78.6289121 23.74536133 83.6875 C23.73955633 90.16842844 23.75652943 96.64907206 23.779706 103.12995338 C23.79443549 108.11937123 23.7953163 113.10872025 23.79219627 118.09815598 C23.79270947 120.48795513 23.79794697 122.87775813 23.80800819 125.26753616 C23.82034518 128.60644357 23.81359785 131.94479293 23.80200195 135.28369141 C23.80964569 136.26878189 23.81728943 137.25387238 23.82516479 138.26881409 C23.77896608 144.28761437 23.16144087 148.84878081 18.9296875 153.48828125 C13.52247885 157.69858174 9.15075073 158.67237423 2.4296875 157.84375 C-2.8738353 155.14195537 -6.66863548 151.54878105 -8.5703125 145.84375 C-8.65936546 144.49991151 -8.69496387 143.15209903 -8.69488525 141.80531311 C-8.69744827 140.98552979 -8.70001129 140.16574646 -8.70265198 139.32112122 C-8.70055222 138.42503647 -8.69845245 137.52895172 -8.69628906 136.60571289 C-8.6981572 135.65894684 -8.70002533 134.71218079 -8.70195007 133.73672485 C-8.70595692 131.67746821 -8.70802917 129.61820712 -8.70841217 127.55894661 C-8.71183019 123.17019203 -8.73320267 118.78158525 -8.75364304 114.39288235 C-8.79161948 106.22243322 -8.82293564 98.05213925 -8.82080078 89.8815918 C-8.82001038 84.19799506 -8.84352251 78.51493616 -8.8826828 72.83148003 C-8.89309916 70.67274841 -8.89469926 68.51395438 -8.88703156 66.35521126 C-8.84163971 52.15076872 -9.33251473 40.35061485 -18.62890625 28.796875 C-23.33545497 24.06191653 -29.78886521 17.86583416 -36.5703125 16.84375 C-37.77022849 18.4386508 -38.95492568 20.04501147 -40.1328125 21.65625 C-41.12474609 22.99623047 -41.12474609 22.99623047 -42.13671875 24.36328125 C-42.60980469 25.18183594 -43.08289063 26.00039062 -43.5703125 26.84375 C-42.33148065 30.56024555 -41.12681176 31.01836632 -37.8828125 33.09375 C-31.33538413 37.53363705 -27.519138 41.47168625 -24.5703125 48.84375 C-24.5703125 58.41375 -24.5703125 67.98375 -24.5703125 77.84375 C-45.6903125 77.84375 -66.8103125 77.84375 -88.5703125 77.84375 C-88.6321875 71.49125 -88.6940625 65.13875 -88.7578125 58.59375 C-88.78512451 56.6147168 -88.81243652 54.63568359 -88.84057617 52.59667969 C-88.98825469 34.52429682 -85.61118069 19.3647866 -72.7265625 5.8359375 C-52.00539747 -13.30861714 -23.29154085 -15.77574013 0 0 Z " fill="#FDFDFD" transform="translate(280.5703125,146.15625)"/>
<path d="M0 0 C9.90782547 7.37711212 18.07480932 17.89456157 20.12890625 30.37890625 C21.49538613 45.6885419 18.94797401 59.18648799 9.21875 71.40625 C0.27759828 81.12553151 -11.50806206 87.04025013 -24.7109375 87.953125 C-39.03970749 88.39090176 -51.31134227 84.00720674 -61.91015625 74.2421875 C-72.01198976 63.57735372 -76.19279 50.5033652 -75.90625 36.0078125 C-74.95252988 23.35209786 -69.28796118 12.39135633 -60.0859375 3.74609375 C-42.49466141 -10.78582998 -19.32056806 -12.58811728 0 0 Z " fill="#FDFDFD" transform="translate(267.66015625,32.2578125)"/>
<path d="M0 0 C2.11100062 0.00339381 4.22201535 0.0014675 6.33300781 -0.00531006 C12.00658948 -0.00872223 17.67706282 0.06130926 23.34992838 0.14557743 C29.29943548 0.22112073 35.24903137 0.22768325 41.19894409 0.24188232 C52.44005237 0.27902684 63.67974292 0.3772887 74.92022979 0.4980762 C87.72794113 0.63268667 100.53572388 0.6983041 113.34396768 0.75842142 C139.66745869 0.88350496 165.98959541 1.09671876 192.31201172 1.36230469 C192.31201172 11.92230469 192.31201172 22.48230469 192.31201172 33.36230469 C164.72101064 33.64069029 137.13035055 33.85454316 109.53822517 33.98405075 C96.72519087 34.04579554 83.91304791 34.12989857 71.10058594 34.26757812 C59.92660325 34.38759323 48.75326639 34.46469916 37.57865703 34.49136662 C31.66731752 34.50694351 25.75782477 34.5432636 19.84708023 34.63106537 C14.26999365 34.71323044 8.69549329 34.73750444 3.11785889 34.71959686 C1.08377845 34.72286701 -0.95039897 34.74631889 -2.98395157 34.79277039 C-14.17346583 35.03557825 -22.49303517 33.9615976 -32.04348755 27.77716064 C-32.81884727 27.27809857 -33.594207 26.7790365 -34.39306247 26.26485133 C-37.13960538 24.26419269 -39.21042402 22.63411018 -40.42393172 19.40240741 C-40.77290078 16.16073782 -40.34991867 14.20340062 -38.32009161 11.62415767 C-36.32944154 9.83941547 -34.29183716 8.39460413 -32.04348755 6.94744873 C-31.23444572 6.42355017 -30.42540388 5.89965162 -29.59184563 5.35987735 C-19.99753077 -0.31892061 -10.86596351 -0.24820612 0 0 Z " fill="#328DF6" transform="translate(63.68798828125,238.6376953125)"/>
<path d="M0 0 C5.67476113 1.96434039 9.31400331 5.62800662 12 11 C12.17435436 12.91999859 12.34494504 14.84044618 12.49243164 16.76269531 C13.86631627 33.40062729 19.72261335 49.74871007 31.77734375 61.76953125 C34 64 34 64 34 66 C34.57234375 66.25136719 35.1446875 66.50273437 35.734375 66.76171875 C38.29619061 68.16188349 40.12502318 69.8136459 42.25 71.8125 C46.26295079 75.46608206 50.31510732 78.27424426 55 81 C53.68878451 84.38028946 52.21725331 87.6195012 50.625 90.875 C47.48970141 97.67589991 45.75174164 104.74837678 44 112 C17.57106475 100.36425196 -3.62138351 75.53290374 -14 49 C-24.11195403 19.68079185 -24.11195403 19.68079185 -18.3125 7.4375 C-12.40279541 1.20835192 -8.45831976 -0.77153592 0 0 Z " fill="#FCFCFC" transform="translate(132,72)"/>
<path d="M0 0 C6.69809768 4.76229994 11.16407958 11.54657266 13.3125 19.4375 C14.63589593 30.16397224 12.19041124 39.59787827 5.75 48.3125 C0.70575043 53.70007545 -8.15971888 58.05495894 -15.5078125 58.67578125 C-22.90127368 58.84182825 -28.33208785 58.30391044 -34.6875 54.4375 C-35.73550781 53.81875 -35.73550781 53.81875 -36.8046875 53.1875 C-44.18628749 48.2850034 -48.33643302 40.86928111 -50.6875 32.4375 C-51.56805277 24.27702844 -50.98966839 17.4871591 -46.6875 10.4375 C-46.26339844 9.73882812 -45.83929688 9.04015625 -45.40234375 8.3203125 C-34.72335 -7.44533287 -15.737631 -9.39997249 0 0 Z M-32.0625 18.0625 C-34.26657893 22.64020239 -34.4846639 26.44302411 -33.6875 31.4375 C-31.35781069 36.27608548 -28.52608548 39.10781069 -23.6875 41.4375 C-18.69302411 42.2346639 -14.89020239 42.01657893 -10.3125 39.8125 C-6.72842287 36.56976355 -4.09214759 33.97274104 -3.3046875 29.0390625 C-3.04866081 23.35527006 -3.75123068 19.78811345 -7.6875 15.4375 C-12.03811345 11.50123068 -15.60527006 10.79866081 -21.2890625 11.0546875 C-26.22274104 11.84214759 -28.81976355 14.47842287 -32.0625 18.0625 Z " fill="#000103" transform="translate(458.6875,229.5625)"/>
<path d="M0 0 C26.4 0 52.8 0 80 0 C80 15.84 80 31.68 80 48 C74.72 48 69.44 48 64 48 C64 37.44 64 26.88 64 16 C48.16 16 32.32 16 16 16 C16 26.56 16 37.12 16 48 C10.72 48 5.44 48 0 48 C0 32.16 0 16.32 0 0 Z " fill="#338EF7" transform="translate(48,288)"/>
</svg>
