<?xml version="1.0" encoding="UTF-8"?>
<svg version="1.1" xmlns="http://www.w3.org/2000/svg" width="512" height="512">
<path d="M0 0 C4.46865569 1.99923736 8.62619986 4.47643054 12.8125 7 C14.0523213 7.72996733 15.29306215 8.45837485 16.53466797 9.18530273 C19.74228314 11.0688424 22.93740918 12.97252613 26.1293335 14.88250732 C29.05572745 16.63066703 31.99102138 18.36357564 34.92578125 20.09765625 C38.27969965 22.08113282 41.6322122 24.066793 44.98046875 26.05981445 C52.72124613 30.66717838 60.50277026 35.19812313 68.3125 39.6875 C85.20153465 49.41187748 85.20153465 49.41187748 93.375 54.1875 C94.29063721 54.71625732 95.20627441 55.24501465 96.1496582 55.78979492 C104.66831623 60.78925899 104.66831623 60.78925899 107 64 C108.00548115 68.5981279 108.18771388 73.14722606 108.23828125 77.8359375 C108.24802979 78.58398651 108.25777832 79.33203552 108.26782227 80.10275269 C108.44678718 97.42499048 108.04297498 114.0549815 104 131 C103.82339844 131.76038574 103.64679688 132.52077148 103.46484375 133.30419922 C95.53550282 166.26235796 76.70161234 194.93016324 53.375 219 C52.8354216 219.56894485 52.2958432 220.13788971 51.73991394 220.72407532 C48.56370961 223.92723238 45.78372072 226.27683148 41.6159668 228.05737305 C36.06785575 230.6648688 31.99653105 233.53275364 29 239 C25.5630143 251.26645645 27.0257462 265.32059434 27.36914062 277.90472412 C27.48339665 282.76478765 27.50005727 287.62513176 27.52539062 292.48632812 C27.58909391 301.99361924 27.75990206 311.49563983 28 321 C29.86845581 321.21825439 29.86845581 321.21825439 31.7746582 321.44091797 C53.06621992 323.92798611 73.90327256 338.19761399 87.23779297 354.51464844 C105.25704143 377.34403327 110.73343736 403.9290193 107.71582031 432.71044922 C103.92134857 457.17105859 89.12499482 478.80442222 70 494 C46.9572756 510.1833567 20.75870384 515.62123925 -7.015625 511.33984375 C-34.35411194 506.04872079 -55.33106628 488.68775636 -71.1875 466.5625 C-75.96338918 460.18159889 -81.38157733 458.17923188 -89 457 C-92.93252419 456.73228972 -96.84951482 456.73129137 -100.79000854 456.7484436 C-102.52949475 456.7439884 -102.52949475 456.7439884 -104.30412209 456.73944318 C-107.5006497 456.73315483 -110.69702718 456.73568583 -113.89355016 456.74196196 C-117.34967617 456.74651612 -120.80578044 456.73944495 -124.26190186 456.73365784 C-130.24494093 456.72504354 -136.22795045 456.72321221 -142.21099472 456.72560501 C-150.87334638 456.72870946 -159.535633 456.71703995 -168.19796826 456.70105521 C-182.26950557 456.67511799 -196.34104293 456.65508648 -210.41259766 456.64160156 C-211.25395732 456.64079119 -212.09531699 456.63998082 -212.9621724 456.6391459 C-224.90108928 456.62792519 -236.84000149 456.62264306 -248.77892293 456.61975877 C-249.61967621 456.61955478 -250.4604295 456.61935079 -251.32666016 456.61914062 C-252.16638295 456.61894069 -253.00610575 456.61874075 -253.87127469 456.61853476 C-267.88945193 456.61479787 -281.90755848 456.59568679 -295.92570031 456.56404626 C-304.56259092 456.545166 -313.19929997 456.53914893 -321.8362055 456.54986344 C-327.75729791 456.55619706 -333.67826039 456.54810129 -339.59932433 456.52880932 C-343.01140466 456.5181601 -346.42316916 456.51391976 -349.83524704 456.52728081 C-353.54247487 456.53842649 -357.24884823 456.52494025 -360.95602417 456.50552368 C-362.55629764 456.51921067 -362.55629764 456.51921067 -364.18889987 456.53317416 C-375.54585124 456.41782216 -384.75835244 452.86773538 -393 445 C-401.96253964 435.61151788 -404.61227251 425.47371329 -404.50793457 412.74169922 C-404.51417453 411.55583158 -404.5204145 410.36996395 -404.52684355 409.14816093 C-404.53995214 405.88758712 -404.53535141 402.62761846 -404.52289867 399.36706066 C-404.51379612 395.83869041 -404.52784353 392.31039793 -404.53881836 388.78204346 C-404.55655301 381.88227826 -404.55278627 374.98268766 -404.5411678 368.08291578 C-404.53211376 362.47256005 -404.53091797 356.86225305 -404.53526306 351.25189209 C-404.53587599 350.45170367 -404.53648893 349.65151525 -404.53712043 348.8270787 C-404.5383994 347.2012286 -404.53969626 345.57537852 -404.5410108 343.94952846 C-404.55240179 328.72382305 -404.53932619 313.49821417 -404.51780933 298.2725246 C-404.49993968 285.22395246 -404.50304421 272.17552269 -404.52148438 259.12695312 C-404.54291731 243.95366385 -404.55130329 228.78045905 -404.53903532 213.60715675 C-404.5377612 211.98747382 -404.53650371 210.36779087 -404.53526306 208.74810791 C-404.53464596 207.95130863 -404.53402886 207.15450935 -404.53339306 206.33356464 C-404.52994742 200.73356583 -404.5357515 195.13362085 -404.54518127 189.53363037 C-404.55642962 182.70389554 -404.5533019 175.87434446 -404.5320583 169.04463053 C-404.52158578 165.56368053 -404.51736046 162.08303629 -404.53065491 158.60208893 C-404.54162039 154.82052333 -404.52783265 151.03981226 -404.50793457 147.25830078 C-404.5213189 145.62505513 -404.5213189 145.62505513 -404.53497362 143.95881462 C-404.41872574 132.53235733 -400.92206532 123.29855951 -393 115 C-384.03324103 106.44005051 -374.14458953 103.37183582 -361.92048645 103.51898193 C-360.86161482 103.51556423 -359.80274319 103.51214653 -358.71178454 103.50862527 C-355.19404797 103.50208165 -351.67708908 103.5239648 -348.15942383 103.54589844 C-345.62581399 103.54702767 -343.09220283 103.54639157 -340.55859375 103.54412842 C-335.11950246 103.54322007 -329.68065777 103.55450183 -324.2416172 103.57707977 C-316.37790631 103.60970135 -308.51428804 103.62001712 -300.65051683 103.62503174 C-287.88959837 103.63376854 -275.12878265 103.66034007 -262.36791992 103.69824219 C-249.97795116 103.73500423 -237.58801039 103.76329541 -225.19799805 103.78027344 C-224.43323014 103.78132433 -223.66846224 103.78237523 -222.88051955 103.78345796 C-219.04359039 103.78867842 -215.20666103 103.79373318 -211.36973155 103.79870558 C-179.57974569 103.84011728 -147.78988887 103.91082052 -116 104 C-116.01047363 103.00669678 -116.02094727 102.01339355 -116.03173828 100.98999023 C-116.06813511 97.2794154 -116.09097161 93.56885613 -116.10986328 89.8581543 C-116.11987623 88.25689026 -116.1334906 86.65564429 -116.15087891 85.05444336 C-116.17533565 82.74328124 -116.18653029 80.43236238 -116.1953125 78.12109375 C-116.20563507 77.41351425 -116.21595764 76.70593475 -116.22659302 75.97691345 C-116.22773126 70.8518117 -115.97513871 65.26111742 -112.46557617 61.2434082 C-111.544823 60.62212036 -111.544823 60.62212036 -110.60546875 59.98828125 C-109.88794434 59.50053223 -109.17041992 59.0127832 -108.43115234 58.51025391 C-103.78540935 55.62427618 -99.07401384 52.87783127 -94.3125 50.1875 C-91.9877133 48.86035537 -89.66350299 47.53223893 -87.33984375 46.203125 C-86.44093414 45.68999001 -86.44093414 45.68999001 -85.52386475 45.16648865 C-78.77595656 41.31072569 -72.07511824 37.3755191 -65.375 33.4375 C-62.9376527 32.00625028 -60.50006349 30.57541273 -58.0625 29.14453125 C-57.17099998 28.62107872 -57.17099998 28.62107872 -56.26148987 28.08705139 C-49.32608299 24.01562453 -42.38675024 19.95072459 -35.42919922 15.91723633 C-30.77952048 13.22039107 -26.15394424 10.49537044 -21.5703125 7.6875 C-20.71260254 7.16978027 -19.85489258 6.65206055 -18.97119141 6.11865234 C-17.38400979 5.1593185 -15.8047263 4.18672417 -14.23583984 3.19775391 C-9.58995014 0.41360893 -5.45533273 -1.42094022 0 0 Z " fill="#005BC4" transform="translate(404,0)"/>
<path d="M0 0 C38.04771799 -0.32054978 76.09523235 -0.56718742 114.14402779 -0.71491461 C118.63752464 -0.73242419 123.13101883 -0.75054473 127.62451172 -0.76904297 C128.51907305 -0.77271531 129.41363437 -0.77638766 130.33530362 -0.78017129 C144.81398107 -0.84106557 159.29187913 -0.95143445 173.77009444 -1.08013915 C188.62975715 -1.21113152 203.48901212 -1.28883726 218.3492285 -1.31723893 C227.51693526 -1.33643557 236.68243915 -1.39702188 245.84946759 -1.51083054 C252.13853007 -1.58492466 258.42645649 -1.607183 264.71592359 -1.58901928 C268.34389947 -1.58006256 271.96803242 -1.5936253 275.59532166 -1.66887665 C296.76181195 -2.08645244 296.76181195 -2.08645244 302.08828783 1.34554052 C305.36515491 4.50709843 307.30552929 8.04105098 309.09728169 12.18377948 C310.67130724 15.35063395 312.95099237 17.82709454 315.25 20.5 C316.00676025 21.39295776 316.00676025 21.39295776 316.77880859 22.30395508 C330.20390071 37.4381262 344.73005972 49.46591568 362 60 C362.78342773 60.48243164 363.56685547 60.96486328 364.37402344 61.46191406 C366.90612479 63.01252004 369.45063381 64.54047206 372 66.0625 C372.80131348 66.55226318 373.60262695 67.04202637 374.42822266 67.54663086 C380.30539611 71.0055374 380.30539611 71.0055374 387 71 C390.23405693 69.51305768 390.23405693 69.51305768 393.3125 67.5 C398.95833333 64 398.95833333 64 400 64 C400 87.76 400 111.52 400 136 C393.07 136.99 386.14 137.98 379 139 C352.40287065 144.87936544 333.3247126 160.79255218 317.8125 182.4375 C313.89371702 187.7165217 309.26780937 190.23169891 303 192 C299.96127319 192.18426514 299.96127319 192.18426514 296.70458984 192.09667969 C295.47404877 192.07136169 294.24350769 192.0460437 292.97567749 192.0199585 C292.32321423 192.00305717 291.67075096 191.98615585 290.99851608 191.96874237 C287.45910419 191.88733058 283.91908332 191.87326934 280.37890625 191.84765625 C275.91129779 191.81248084 271.4468315 191.75969826 266.98095703 191.62646484 C248.29704279 191.09340407 234.04069507 192.54892309 217.73397827 202.25921631 C216.66757111 202.892005 215.60116394 203.5247937 214.50244141 204.17675781 C213.57960358 204.76579895 212.65676575 205.35484009 211.70596313 205.96173096 C208.10347305 207.34399441 206.45458563 206.53862969 203 205 C201.29810899 204.17193816 199.61510614 203.30394184 197.953125 202.3984375 C196.5609375 201.66367187 196.5609375 201.66367187 195.140625 200.9140625 C193.22243349 199.89275513 191.31082953 198.85897227 189.40625 197.8125 C183.21094792 194.57793621 177.99747579 192.41176559 171 194 C166.39304705 195.87693344 162.09223538 198.20603782 157.75 200.625 C155.48407548 201.8855481 153.20829947 203.12859127 150.921875 204.3515625 C149.92768555 204.90666504 148.93349609 205.46176758 147.90917969 206.03369141 C144.15319437 207.28127364 142.56631894 206.5838065 139 205 C138.20489014 204.65767334 137.40978027 204.31534668 136.59057617 203.96264648 C135.83236572 203.60243408 135.07415527 203.24222168 134.29296875 202.87109375 C133.45958984 202.47599609 132.62621094 202.08089844 131.76757812 201.67382812 C130.91615234 201.26583984 130.06472656 200.85785156 129.1875 200.4375 C128.31673828 200.02564453 127.44597656 199.61378906 126.54882812 199.18945312 C120.13502139 196.13502139 120.13502139 196.13502139 119 195 C117.10443983 194.72168542 117.10443983 194.72168542 114.875 194.6875 C114.12992187 194.65011719 113.38484375 194.61273438 112.6171875 194.57421875 C105.42534014 195.74423571 101.77270311 200.04342487 97.70117188 205.66601562 C97.11916016 206.49810547 96.53714844 207.33019531 95.9375 208.1875 C95.35162109 209.00025391 94.76574219 209.81300781 94.16210938 210.65039062 C92.41746505 213.08437278 90.70530672 215.53833699 89 218 C88.13411255 219.22493164 88.13411255 219.22493164 87.25073242 220.47460938 C86.43439331 221.65313477 86.43439331 221.65313477 85.6015625 222.85546875 C84.86993896 223.90383911 84.86993896 223.90383911 84.12353516 224.97338867 C82.13516721 228.55996892 82.41239506 230.95205488 83 235 C84.97173155 240.39363986 87.58580438 244.43582023 91.1875 248.875 C96 254.89899166 96 254.89899166 96 256 C85.96830868 256.09287433 75.93672044 256.16385329 65.90468597 256.20724869 C61.24587262 256.22808137 56.58735444 256.25631961 51.92871094 256.30175781 C47.42884946 256.3453703 42.92927107 256.36916957 38.42921448 256.37950897 C36.71647183 256.38687279 35.00374385 256.40125255 33.29112244 256.42292023 C15.31627409 256.64119167 15.31627409 256.64119167 7.5390625 249.8515625 C6.90742188 249.11679687 6.27578125 248.38203125 5.625 247.625 C4.97789063 246.89539063 4.33078125 246.16578125 3.6640625 245.4140625 C-0.28870636 239.67976402 -0.28366986 233.98353592 -0.24050903 227.28103638 C-0.24221788 226.30810792 -0.24392673 225.33517946 -0.24568737 224.33276832 C-0.24897885 221.0760998 -0.23798406 217.81963779 -0.22705078 214.56298828 C-0.22648659 212.22715764 -0.22680337 209.89132665 -0.22793579 207.55549622 C-0.22851001 201.21511359 -0.2167444 194.87480652 -0.20278788 188.53444147 C-0.19155811 182.57939339 -0.18954162 176.62434824 -0.18748413 170.669291 C-0.18310972 158.87619277 -0.16980752 147.08312225 -0.15087891 135.29003906 C-0.13251352 123.83593891 -0.11836024 112.38184629 -0.10986328 100.92773438 C-0.10907511 99.86822196 -0.10907511 99.86822196 -0.10827102 98.78730525 C-0.10566089 95.24370422 -0.10313349 91.70010313 -0.10064721 88.15650201 C-0.07992263 58.77098348 -0.04455507 29.38549203 0 0 Z " fill="#F4F4F4" transform="translate(16,184)"/>
<path d="M0 0 C0.91434563 -0.00523668 1.82869125 -0.01047336 2.77074432 -0.01586872 C5.81799234 -0.03080513 8.86507149 -0.03157248 11.91235352 -0.03224182 C14.10429668 -0.03986777 16.29623718 -0.04829601 18.48817444 -0.0574646 C24.4328055 -0.07937802 30.37738512 -0.0882047 36.322052 -0.09329104 C40.04161179 -0.09693943 43.76115821 -0.10318212 47.48071289 -0.11029243 C59.80334405 -0.13351661 72.12594532 -0.1474983 84.44859719 -0.15082847 C85.1119444 -0.15101128 85.7752916 -0.1511941 86.45874023 -0.15138245 C87.12290758 -0.151563 87.78707492 -0.15174354 88.47136855 -0.15192956 C99.21720788 -0.15546619 109.96284619 -0.1824599 120.7086159 -0.21988034 C131.76952043 -0.25808639 142.83032058 -0.27688757 153.89129162 -0.27762848 C160.09014045 -0.27841897 166.28872993 -0.28705208 172.48751831 -0.31562614 C178.32517839 -0.34193387 184.16236647 -0.34394113 190.00005913 -0.3279705 C192.13160678 -0.3261659 194.26318237 -0.33275635 196.39467049 -0.34878922 C215.901179 -0.48645981 232.83869766 2.61615402 247.72875977 16.30540466 C258.54403089 27.66143935 264.05011602 41.92926017 264.03979492 57.48143005 C263.73996273 69.37092958 259.55645054 80.65148728 252.60375977 90.27415466 C252.16547852 90.89419373 251.72719727 91.51423279 251.27563477 92.15306091 C242.67234905 103.20383308 229.1420649 109.7058724 215.60375977 112.27415466 C212.46180674 112.54253679 209.33942197 112.55315704 206.18733215 112.5415802 C204.81263867 112.54837687 204.81263867 112.54837687 203.41017359 112.55531085 C200.35591654 112.56791599 197.30183869 112.56633698 194.24755859 112.56468201 C192.05074841 112.57066973 189.85394034 112.57747584 187.65713501 112.58503723 C181.70030299 112.60268089 175.74352846 112.60739197 169.78667283 112.6086688 C166.06110619 112.61009204 162.33555409 112.61436496 158.60999107 112.61966324 C146.27215978 112.63720528 133.93435912 112.64650416 121.59651581 112.64500229 C120.93238044 112.64492238 120.26824506 112.64484247 119.58398438 112.64476013 C118.9190301 112.64467837 118.25407582 112.64459661 117.56897142 112.64451237 C106.80173582 112.64370013 96.03464034 112.66282525 85.26744524 112.69103687 C74.1896064 112.71983137 63.1118391 112.73320806 52.03396243 112.73184931 C45.82351479 112.73134053 39.61322573 112.73697721 33.40281105 112.75820541 C27.55782056 112.77763948 21.71313906 112.77767677 15.86813736 112.76317215 C13.73049783 112.76108928 11.5928387 112.76575357 9.45523262 112.77789307 C-9.60647086 112.87907921 -25.86788344 110.10089107 -40.33374023 96.46165466 C-52.13552589 83.94460927 -57.10722032 68.48442421 -56.70874023 51.59837341 C-55.95770752 37.38820853 -48.64321953 23.91837047 -38.39624023 14.27415466 C-27.13250506 4.97829335 -14.5645038 -0.04181235 0 0 Z " fill="#338EF6" transform="translate(112.396240234375,231.72584533691406)"/>
<path d="M0 0 C1.33958216 1.11755197 2.67370002 2.24171665 4 3.375 C5.010625 4.138125 6.02125 4.90125 7.0625 5.6875 C21.41844373 18.82166129 30.92524527 37.95613609 32 57.375 C32.05897461 58.32511963 32.05897461 58.32511963 32.11914062 59.29443359 C33.28877546 80.53123551 26.92398189 100.13035447 13 116.375 C12.55398438 116.96410156 12.10796875 117.55320312 11.6484375 118.16015625 C0.28420554 132.74757681 -19.06919534 141.3506634 -37 144.375 C-58.26632547 146.74398772 -79.7664452 141.4719577 -96.6796875 128.26953125 C-97.44539062 127.64433594 -98.21109375 127.01914062 -99 126.375 C-99.64195312 125.88386719 -100.28390625 125.39273438 -100.9453125 124.88671875 C-106.97414767 120.08798223 -111.64016708 113.90989376 -115.8984375 107.53125 C-122.26191823 98.07693577 -129.5392919 92.92627094 -140.53565598 90.0100708 C-147.73525169 88.6902674 -155.07137482 89.03630232 -162.36376953 89.1171875 C-164.20297604 89.12619345 -166.04219038 89.13370548 -167.88140869 89.1398468 C-171.82261796 89.15515779 -175.76365168 89.17893963 -179.70477676 89.20883179 C-185.94185673 89.25404541 -192.17875947 89.2676059 -198.41598511 89.2746582 C-216.14528027 89.29811676 -233.87414537 89.33901322 -251.60302734 89.46728516 C-261.40962693 89.53798036 -271.21552515 89.56950505 -281.02238166 89.55699539 C-286.20492037 89.55208099 -291.38563101 89.5675049 -296.56781387 89.63153076 C-301.43924296 89.69161573 -306.30810384 89.70051769 -311.17978668 89.6707058 C-312.96281429 89.66890844 -314.74597837 89.68583457 -316.52861404 89.72326088 C-329.97590995 89.99028002 -329.97590995 89.99028002 -335.01423264 85.96955872 C-337.30395411 83.20598459 -339.17533807 80.45932943 -341 77.375 C-341.93171077 76.12864528 -342.87819861 74.89300635 -343.84765625 73.67578125 C-344.94400391 72.19658203 -344.94400391 72.19658203 -346.0625 70.6875 C-346.81660156 69.67300781 -347.57070313 68.65851563 -348.34765625 67.61328125 C-348.89292969 66.87464844 -349.43820312 66.13601563 -350 65.375 C-348.54890729 62.24861141 -346.79659374 59.59223521 -344.7421875 56.828125 C-344.11699219 55.98378906 -343.49179687 55.13945312 -342.84765625 54.26953125 C-341.87119141 52.96048828 -341.87119141 52.96048828 -340.875 51.625 C-340.21628906 50.73683594 -339.55757812 49.84867187 -338.87890625 48.93359375 C-337.25535501 46.74532904 -335.62897174 44.55923091 -334 42.375 C-330.95781784 43.81141085 -327.91634877 45.24932554 -324.875 46.6875 C-323.59109375 47.29368164 -323.59109375 47.29368164 -322.28125 47.91210938 C-321.02441406 48.50668945 -321.02441406 48.50668945 -319.7421875 49.11328125 C-318.91557617 49.4995166 -318.08896484 49.88575195 -317.23730469 50.28369141 C-315 51.375 -315 51.375 -312.0078125 53.16796875 C-306.34433255 55.4407159 -301.54348849 55.39697968 -295.85742188 53.11230469 C-292.43711687 51.40618795 -289.08901476 49.61009041 -285.75 47.75 C-283.48407548 46.4894519 -281.20829947 45.24640873 -278.921875 44.0234375 C-277.92768555 43.46833496 -276.93349609 42.91323242 -275.90917969 42.34130859 C-271.35594888 40.82891454 -268.59255555 42.60013576 -264.45800781 44.61181641 C-263.63139648 45.06218262 -262.80478516 45.51254883 -261.953125 45.9765625 C-261.025 46.46640625 -260.096875 46.95625 -259.140625 47.4609375 C-257.22243349 48.48224487 -255.31082953 49.51602773 -253.40625 50.5625 C-247.30896614 53.74588854 -241.90308294 56.10825338 -235 54.375 C-232.30231062 52.89865802 -229.8464907 51.18842812 -227.3125 49.4465332 C-208.87949091 37.35427939 -187.86441913 38.99754794 -166.68457031 39.28344727 C-165.67735491 39.29551051 -165.67735491 39.29551051 -164.64979172 39.30781746 C-161.4639096 39.34792248 -158.28147985 39.40933371 -155.09686279 39.50994873 C-142.70103902 39.77743767 -131.62220734 37.57706228 -122 29.375 C-118.70008914 25.57153131 -115.85538789 21.51769634 -113 17.375 C-100.58276759 0.30441596 -82.75306375 -11.03474921 -62.01953125 -15.078125 C-40.18405091 -18.39268397 -17.67153348 -13.50316512 0 0 Z " fill="#328DF6" transform="translate(464,351.625)"/>
<path d="M0 0 C2.42407227 1.12890625 2.42407227 1.12890625 4.81640625 2.5625 C5.73035156 3.10326172 6.64429688 3.64402344 7.5859375 4.20117188 C9.05933594 5.0915918 9.05933594 5.0915918 10.5625 6 C12.71995846 7.28140765 14.87751485 8.56265042 17.03515625 9.84375 C18.18127546 10.5284398 19.32726966 11.21333888 20.47314453 11.8984375 C25.8496812 15.10824317 31.25821145 18.26355504 36.66323853 21.42504883 C38.50494398 22.50289343 40.34576788 23.58222727 42.1862793 24.66210938 C49.05450381 28.69188463 55.92573402 32.71624536 62.81445312 36.7109375 C64.82963951 37.88892776 66.83648057 39.08133083 68.83398438 40.2890625 C73.08793019 42.84668538 77.13029849 45.15973515 81.8203125 46.8125 C86.10713965 48.44064677 89.6625121 49.87229319 92 54 C100.17970185 88.09956904 83.68621946 129.51873043 66.1875 158.1875 C61.81611351 165.14611967 56.83475429 171.39915574 51.34375 177.50048828 C50.03393678 178.96212941 48.75090895 180.44763484 47.46875 181.93359375 C41.82268965 188.37474804 35.7784918 193.77999801 29 199 C28.11054688 199.71671875 27.22109375 200.4334375 26.3046875 201.171875 C20.19149636 205.9738803 13.78966463 210.13359507 7.125 214.125 C6.31611328 214.62306152 5.50722656 215.12112305 4.67382812 215.63427734 C1.28018831 217.61483934 -1.09312813 218.97455206 -5.0625 219.0859375 C-9.02572191 217.62081025 -12.51994512 215.69103652 -16.125 213.5 C-17.24660522 212.82723022 -17.24660522 212.82723022 -18.39086914 212.14086914 C-27.91499164 206.33980343 -36.51706627 199.67955872 -44.70703125 192.1015625 C-46.73470262 190.2431516 -48.81526552 188.49772251 -50.9375 186.75 C-70.46291313 169.57233194 -83.14832683 145.06383005 -92 121 C-92.36867188 120.01515625 -92.73734375 119.0303125 -93.1171875 118.015625 C-96.87949466 106.99119006 -98.60524892 95.52352964 -100 84 C-100.17370117 82.74123047 -100.34740234 81.48246094 -100.52636719 80.18554688 C-103.27593125 58.32948361 -103.27593125 58.32948361 -98.20996094 51.63427734 C-93.16508526 47.35315479 -87.26160153 44.89366547 -81.19042969 42.39404297 C-75.8974853 40.08131627 -71.05902288 37.04828313 -66.125 34.0625 C-64.10899523 32.88290886 -62.09074946 31.70713962 -60.0703125 30.53515625 C-55.04240089 27.60746037 -50.01582972 24.67748462 -44.99121094 21.74414062 C-43.00880884 20.58822481 -41.02509798 19.4345504 -39.04003906 18.28320312 C-33.78340506 15.23051794 -28.55909145 12.13436346 -23.3671875 8.97265625 C-22.28050781 8.31845703 -21.19382812 7.66425781 -20.07421875 6.99023438 C-17.9878135 5.73304147 -15.90921682 4.46276977 -13.83984375 3.17773438 C-12.90011719 2.61505859 -11.96039063 2.05238281 -10.9921875 1.47265625 C-10.17089355 0.97000244 -9.34959961 0.46734863 -8.50341797 -0.05053711 C-5.22541163 -1.29377552 -3.35817189 -0.91531647 0 0 Z " fill="#F3F3F4" transform="translate(404,19)"/>
<path d="M0 0 C1.05374508 -0.00170885 2.10749016 -0.0034177 3.19316691 -0.00517833 C6.72932592 -0.00847648 10.26529581 0.00253599 13.80143738 0.01345825 C16.33416235 0.01402229 18.86688765 0.01370594 21.39961243 0.01257324 C26.85510483 0.01211758 32.31053616 0.01779589 37.76601601 0.02904892 C45.65369484 0.04530825 53.54135055 0.05051237 61.42904433 0.0530249 C74.22652831 0.05740133 87.02398678 0.070709 99.82145691 0.08963013 C112.25244519 0.10799029 124.68342655 0.12214613 137.11442566 0.13064575 C137.88076991 0.1311712 138.64711415 0.13169665 139.43668095 0.13223802 C143.28123405 0.1348481 147.12578719 0.13737552 150.97034037 0.13986182 C182.86091681 0.16059268 214.75146121 0.19596553 246.64201355 0.24050903 C246.90715256 1.39627441 247.17229156 2.55203979 247.44546509 3.74282837 C247.80176506 5.28050158 248.15822389 6.81813799 248.51481628 8.35574341 C248.68854515 9.11498108 248.86227402 9.87421875 249.0412674 10.65646362 C250.48704752 16.86782388 252.4067608 22.79025913 254.70451355 28.74050903 C255.38401938 30.5421702 256.06241862 32.34424913 256.7396698 34.14675903 C257.03365662 34.91310669 257.32764343 35.67945435 257.63053894 36.46902466 C259.05174752 40.36319792 260.33111999 44.30782836 261.64201355 48.24050903 C165.94201355 48.24050903 70.24201355 48.24050903 -28.35798645 48.24050903 C-28.35798645 14.74855912 -28.35798645 14.74855912 -22.1743927 7.77957153 C-21.05870911 6.8321106 -21.05870911 6.8321106 -19.92048645 5.86550903 C-19.17927551 5.21839966 -18.43806458 4.57129028 -17.6743927 3.90457153 C-11.97733226 -0.18808908 -6.78199194 -0.04009474 0 0 Z " fill="#328DF6" transform="translate(44.35798645019531,119.75949096679688)"/>
<path d="M0 0 C6.55553856 4.66094142 11.47089192 11.5929579 13.3125 19.4375 C13.51038879 24.66707911 13.43860636 29.91100468 13.26367188 35.140625 C13.2724957 41.45881411 13.2724957 41.45881411 16.24658203 46.83959961 C18.52743498 48.83039516 20.88187202 50.63516287 23.3125 52.4375 C34.16196395 64.97507984 38.60024605 79.9555385 37.55517578 96.29833984 C36.40535883 106.43384902 32.25194995 116.21717881 26.3125 124.4375 C25.87421875 125.05753906 25.4359375 125.67757812 24.984375 126.31640625 C16.37486541 137.37517287 2.86273848 143.8590696 -10.6875 146.4375 C-27.88455084 148.31897906 -42.81281696 143.35297586 -56.4375 132.6875 C-66.85716078 123.08108103 -74.05111322 108.98333802 -74.90625 94.8125 C-75.45824215 77.59906057 -70.54646455 63.16679571 -58.6796875 50.33984375 C-56.6875 48.4375 -56.6875 48.4375 -53.98046875 46.953125 C-50.15526375 42.7564776 -51.06513899 37.71625545 -51.125 32.25 C-51.21583689 20.33639197 -49.10231702 11.26098363 -40.6875 2.4375 C-28.21792185 -7.6590525 -13.76318937 -8.22065287 0 0 Z " fill="#025CC4" transform="translate(418.6875,53.5625)"/>
<path d="M0 0 C0.91434563 -0.00523668 1.82869125 -0.01047336 2.77074432 -0.01586872 C5.81799234 -0.03080513 8.86507149 -0.03157248 11.91235352 -0.03224182 C14.10429668 -0.03986777 16.29623718 -0.04829601 18.48817444 -0.0574646 C24.4328055 -0.07937802 30.37738512 -0.0882047 36.322052 -0.09329104 C40.04161179 -0.09693943 43.76115821 -0.10318212 47.48071289 -0.11029243 C59.80334405 -0.13351661 72.12594532 -0.1474983 84.44859719 -0.15082847 C85.1119444 -0.15101128 85.7752916 -0.1511941 86.45874023 -0.15138245 C87.12290758 -0.151563 87.78707492 -0.15174354 88.47136855 -0.15192956 C99.21720788 -0.15546619 109.96284619 -0.1824599 120.7086159 -0.21988034 C131.76952043 -0.25808639 142.83032058 -0.27688757 153.89129162 -0.27762848 C160.09014045 -0.27841897 166.28872993 -0.28705208 172.48751831 -0.31562614 C178.32517839 -0.34193387 184.16236647 -0.34394113 190.00005913 -0.3279705 C192.13160678 -0.3261659 194.26318237 -0.33275635 196.39467049 -0.34878922 C215.901179 -0.48645981 232.83869766 2.61615402 247.72875977 16.30540466 C258.54403089 27.66143935 264.05011602 41.92926017 264.03979492 57.48143005 C263.73996273 69.37092958 259.55645054 80.65148728 252.60375977 90.27415466 C252.16547852 90.89419373 251.72719727 91.51423279 251.27563477 92.15306091 C242.67234905 103.20383308 229.1420649 109.7058724 215.60375977 112.27415466 C212.46180674 112.54253679 209.33942197 112.55315704 206.18733215 112.5415802 C204.81263867 112.54837687 204.81263867 112.54837687 203.41017359 112.55531085 C200.35591654 112.56791599 197.30183869 112.56633698 194.24755859 112.56468201 C192.05074841 112.57066973 189.85394034 112.57747584 187.65713501 112.58503723 C181.70030299 112.60268089 175.74352846 112.60739197 169.78667283 112.6086688 C166.06110619 112.61009204 162.33555409 112.61436496 158.60999107 112.61966324 C146.27215978 112.63720528 133.93435912 112.64650416 121.59651581 112.64500229 C120.93238044 112.64492238 120.26824506 112.64484247 119.58398438 112.64476013 C118.9190301 112.64467837 118.25407582 112.64459661 117.56897142 112.64451237 C106.80173582 112.64370013 96.03464034 112.66282525 85.26744524 112.69103687 C74.1896064 112.71983137 63.1118391 112.73320806 52.03396243 112.73184931 C45.82351479 112.73134053 39.61322573 112.73697721 33.40281105 112.75820541 C27.55782056 112.77763948 21.71313906 112.77767677 15.86813736 112.76317215 C13.73049783 112.76108928 11.5928387 112.76575357 9.45523262 112.77789307 C-9.60647086 112.87907921 -25.86788344 110.10089107 -40.33374023 96.46165466 C-52.13552589 83.94460927 -57.10722032 68.48442421 -56.70874023 51.59837341 C-55.95770752 37.38820853 -48.64321953 23.91837047 -38.39624023 14.27415466 C-27.13250506 4.97829335 -14.5645038 -0.04181235 0 0 Z M-33.08374023 32.43431091 C-39.08452068 40.84611921 -41.47480181 51.00213967 -40.39624023 61.27415466 C-38.23786764 73.60771233 -32.45619532 82.84526475 -22.39624023 90.27415466 C-14.16784831 95.66351078 -4.66912375 96.57855472 4.95698547 96.5415802 C6.28523961 96.54837687 6.28523961 96.54837687 7.64032716 96.55531085 C10.57781825 96.56786965 13.51512192 96.56634003 16.45263672 96.56468201 C18.57092525 96.57067253 20.6892116 96.57747928 22.80749512 96.58503723 C28.5410758 96.60264976 34.27459672 96.60739057 40.00820184 96.6086688 C43.59541645 96.6100935 47.18261602 96.61436911 50.76982689 96.61966324 C63.29870946 96.6381469 75.82754956 96.64633582 88.35644531 96.64476013 C100.01259664 96.64355878 111.66856279 96.6646644 123.32466727 96.69624746 C133.35217413 96.72244404 143.37962062 96.73312603 153.40716141 96.73184931 C159.3873094 96.73134074 165.36729266 96.73696661 171.34740639 96.75820541 C176.97410084 96.77764505 182.60047435 96.77767305 188.22718048 96.76317215 C190.28419402 96.76109016 192.34122797 96.7657483 194.39820671 96.77789307 C210.40458767 96.86622697 224.09606374 95.76085998 236.53344727 84.53196716 C244.16541109 76.63796166 247.99579145 65.76196228 247.81469727 54.86009216 C246.8872142 43.48983686 242.67923592 33.90957993 234.47875977 25.96165466 C226.25083598 19.04907924 216.39957467 16.12642225 205.85780334 16.12025452 C204.95307468 16.11587226 204.04834602 16.11149001 203.11620134 16.10697496 C200.07176887 16.09357562 197.02736535 16.08740545 193.98291016 16.08128357 C191.80492013 16.07338328 189.62693142 16.06511437 187.44894409 16.0565033 C180.28311414 16.03026712 173.11727831 16.01497058 165.95141602 16.00071716 C163.48421157 15.99535748 161.01700715 15.98997997 158.54980278 15.98458481 C148.28398806 15.96295065 138.01817493 15.94421552 127.75234318 15.93296242 C125.08847614 15.93002317 122.42460914 15.92707121 119.76074219 15.92405701 C118.76764789 15.92293793 118.76764789 15.92293793 117.75449108 15.92179625 C106.38036622 15.90837607 95.00644282 15.87066958 83.63239866 15.82656157 C73.28998566 15.78782434 62.94764334 15.76832502 52.6051597 15.76304185 C46.42982465 15.75939263 40.25477186 15.74741702 34.07951546 15.71493912 C28.26411136 15.68479362 22.44915932 15.67857007 16.6336937 15.69032288 C14.50530116 15.69054309 12.37688726 15.68228165 10.24856758 15.66466904 C-7.19018523 15.52827603 -21.56558691 18.13051724 -33.08374023 32.43431091 Z " fill="#015BC4" transform="translate(112.396240234375,231.72584533691406)"/>
<path d="M0 0 C9.93309339 8.19741602 14.52438462 17.63457093 15.78515625 30.375 C16.20370807 40.56582684 12.7041344 50.07411839 6.5625 58.125 C-1.8505763 67.14568737 -11.39578648 71.92459944 -23.75 72.4375 C-35.81237408 72.08025199 -46.35766347 67.6590089 -54.75 59 C-62.17055961 50.16743107 -65.20761109 39.44848529 -64.4375 28.125 C-62.48955257 15.28175339 -56.88985672 5.84366342 -46.4375 -1.875 C-32.10101642 -11.26497755 -13.70504532 -9.72953599 0 0 Z " fill="#328DF6" transform="translate(424.4375,111.875)"/>
<path d="M0 0 C6.31402599 4.4892277 11.8946353 11.71801442 13.3125 19.4375 C14.20657597 29.85182936 12.23751752 38.84437212 6.1015625 47.3984375 C-0.02961272 54.38637083 -8.36373775 57.71299541 -17.44921875 58.75390625 C-26.61949028 59.1503894 -33.70969311 55.89525754 -40.83203125 50.265625 C-47.93308539 43.26921798 -50.63205347 34.68504696 -51.0625 25 C-50.86882644 16.23627125 -46.67605604 8.71689099 -40.6875 2.4375 C-28.21792185 -7.6590525 -13.76318937 -8.22065287 0 0 Z " fill="#015CC4" transform="translate(466.6875,389.5625)"/>
<path d="M0 0 C2.60068033 1.75065251 4.80989482 3.76329683 7 6 C9.56092157 4.82293046 10.95031531 4.05825102 12.8125 1.875 C15 0 15 0 18.4375 -0.5625 C22 0 22 0 25 2.0625 C27 5 27 5 27.125 8.4375 C25.766581 12.73916016 24.08249041 14.75943316 21 18 C22.13139863 20.54564692 23.24651888 22.2755211 25.125 24.375 C27 27 27 27 27.5625 30 C26.78698584 34.13607554 25.38677089 35.54999553 22 38 C18.5625 38.6875 18.5625 38.6875 15 38 C12.62327856 36.19139837 10.96037099 34.29506847 9 32 C6.45595798 33.13068534 4.76141473 34.21924052 2.6875 36.125 C-0.81927423 38.57158667 -2.80618071 38.61001008 -7 38 C-9.4375 36.5 -9.4375 36.5 -11 34 C-11.80139373 29.03135889 -11.80139373 29.03135889 -11 26 C-9.21147331 23.54982181 -7.35970568 21.9664214 -5 20 C-6.09923861 17.4351099 -6.94000359 16.04940881 -9.125 14.25 C-11.52099357 11.37480772 -11.59044898 9.5638921 -11.37890625 5.90625 C-11 4 -11 4 -9.4375 1.5 C-5.94478822 -0.64936109 -4.04352577 -0.68534335 0 0 Z " fill="#F1F3F5" transform="translate(109,269)"/>
<path d="M0 0 C2.60495882 1.7450695 4.80974004 3.76313876 7 6 C9.54283407 4.81155966 11.21315256 3.80413008 13.3125 1.875 C16.81927423 -0.57158667 18.80618071 -0.61001008 23 0 C25.4375 1.5 25.4375 1.5 27 4 C27.80139373 8.96864111 27.80139373 8.96864111 27 12 C25.21147331 14.45017819 23.35970568 16.0335786 21 18 C22.09923861 20.5648901 22.94000359 21.95059119 25.125 23.75 C27.52099357 26.62519228 27.59044898 28.4361079 27.37890625 32.09375 C27 34 27 34 25.4375 36.5 C22.03618625 38.59311615 19.92927257 38.55147685 16 38 C13.0625 36.125 13.0625 36.125 11 34 C11 33.34 11 32.68 11 32 C7.27596629 32.32859121 5.98669408 33.01185962 3.125 35.5625 C0 38 0 38 -3.625 38.625 C-7 38 -7 38 -9.4375 35.875 C-11.32932441 32.39404309 -11.77989801 30.89949005 -11 27 C-9.27064809 24.38488248 -7.36133878 22.0677008 -5 20 C-4.34 20 -3.68 20 -3 20 C-3.88365234 19.03900391 -3.88365234 19.03900391 -4.78515625 18.05859375 C-10.95437262 10.9581749 -10.95437262 10.9581749 -11.1875 6.0625 C-8.85104236 0.03689873 -6.5696192 -0.98544288 0 0 Z " fill="#F2F3F5" transform="translate(307,269)"/>
<path d="M0 0 C2.60495882 1.7450695 4.80974004 3.76313876 7 6 C9.54283407 4.81155966 11.21315256 3.80413008 13.3125 1.875 C16.81927423 -0.57158667 18.80618071 -0.61001008 23 0 C25.4375 1.5 25.4375 1.5 27 4 C27.80139373 8.96864111 27.80139373 8.96864111 27 12 C25.21147331 14.45017819 23.35970568 16.0335786 21 18 C22.09923861 20.5648901 22.94000359 21.95059119 25.125 23.75 C27.52099357 26.62519228 27.59044898 28.4361079 27.37890625 32.09375 C27 34 27 34 25.4375 36.5 C22.03618625 38.59311615 19.92927257 38.55147685 16 38 C13.0625 36.125 13.0625 36.125 11 34 C11 33.34 11 32.68 11 32 C7.27596629 32.32859121 5.98669408 33.01185962 3.125 35.5625 C0 38 0 38 -3.625 38.625 C-7 38 -7 38 -9.4375 35.875 C-11.32932441 32.39404309 -11.77989801 30.89949005 -11 27 C-9.27064809 24.38488248 -7.36133878 22.0677008 -5 20 C-4.34 20 -3.68 20 -3 20 C-3.88365234 19.03900391 -3.88365234 19.03900391 -4.78515625 18.05859375 C-10.95437262 10.9581749 -10.95437262 10.9581749 -11.1875 6.0625 C-8.85104236 0.03689873 -6.5696192 -0.98544288 0 0 Z " fill="#F2F3F5" transform="translate(243,269)"/>
<path d="M0 0 C1.92331918 1.47690887 3.60459897 3.04138063 5.2890625 4.78515625 C6.93288169 6.22632823 6.93288169 6.22632823 9.06640625 5.84375 C11.29169895 5.03095409 11.29169895 5.03095409 13.3125 2.4375 C16 0 16 0 19.5625 -0.5625 C23 0 23 0 25.4375 1.5 C27.21409136 4.34254617 27.67728145 6.60598669 27.5390625 9.9609375 C26.54175971 13.73334372 23.93228446 15.55642961 21 18 C22.22522843 20.89599448 23.4904796 22.5246991 25.6875 24.875 C28 28 28 28 28.0625 31.125 C26.82481182 34.47403861 25.95552697 35.97779734 23 38 C19.625 38.625 19.625 38.625 16 38 C14.25454442 36.52817879 12.86807748 35.00813305 11.45703125 33.21484375 C10.05891108 31.76162891 10.05891108 31.76162891 8.00390625 32.15625 C5.67895041 33.00796477 5.67895041 33.00796477 3.125 35.5625 C0 38 0 38 -3.0625 38.625 C-7.1326611 37.75900828 -8.6204147 36.38910633 -11 33 C-11.19979907 29.33701704 -10.90087777 27.12857216 -8.578125 24.21875 C-7.11772698 22.74444343 -5.56378603 21.36415377 -4 20 C-5.22539208 17.10361872 -6.46342204 15.51502345 -8.6875 13.1875 C-11 10 -11 10 -11.0625 6.3125 C-10 3 -10 3 -8.3125 1.0625 C-5.13743907 -0.39631178 -3.47310443 -0.61290078 0 0 Z " fill="#F2F3F5" transform="translate(175,269)"/>
<path d="M0 0 C4.81776739 1.79243708 8.20206186 4.69547978 11 9 C12.85610067 13.64025169 12.54781076 18.60308257 10.75 23.1875 C9 26 9 26 6.92578125 27.8046875 C4.45569294 30.62048797 4.50743706 32.24016098 4.4375 35.9375 C4.3393951 40.5022635 3.87003816 43.35374697 1 47 C-1.62878161 48.12276504 -4.16096191 48.20605922 -7 48 C-10.26711826 46.32455474 -10.827811 45.51656699 -12 42 C-12.0756392 40.08380688 -12.13641231 38.1670048 -12.1875 36.25 C-12.57410838 30.83093001 -13.69731812 28.11287014 -17.625 24.40234375 C-19.88621306 22.09616338 -20.00810597 19.89462234 -20.25 16.75 C-19.91087078 11.66306164 -18.89143699 8.01575679 -15.3359375 4.2265625 C-10.48400615 0.1091865 -6.29020234 -1.32365769 0 0 Z " fill="#005BC4" transform="translate(404,120)"/>
<path d="M0 0 C4.77096606 2.0050589 7.61816253 4.62530507 10.109375 9.16015625 C11.56918001 12.97448547 11.75750885 16.38002384 10.95703125 20.375 C8.42462743 25.3460149 4.96841991 28.86930567 -0.04296875 31.375 C-4.81277312 32.08163768 -9.21431392 32.44342754 -13.4765625 29.953125 C-17.36429213 26.61467093 -20.48673603 23.48990321 -21.4140625 18.296875 C-21.60237383 12.13798683 -20.18214922 7.99378325 -16.04296875 3.375 C-11.17623084 -0.72878137 -6.13056933 -1.87550878 0 0 Z " fill="#F0F2F4" transform="translate(453.04296875,400.625)"/>
<path d="M0 0 C5.67476113 1.96434039 9.31400331 5.62800662 12 11 C12.0716735 13.55157655 12.09308442 16.07472971 12.0625 18.625 C12.05798828 19.33140625 12.05347656 20.0378125 12.04882812 20.765625 C12.03703875 22.51045275 12.01910324 24.255237 12 26 C11.030625 25.83757812 10.06125 25.67515625 9.0625 25.5078125 C4.70111767 24.88695174 0.39869708 24.85285891 -4 24.875 C-4.76828125 24.87113281 -5.5365625 24.86726563 -6.328125 24.86328125 C-10.98796251 24.87120614 -15.40372732 25.22987984 -20 26 C-20.10883596 23.62374823 -20.18766696 21.25256024 -20.25 18.875 C-20.28351563 18.20984375 -20.31703125 17.5446875 -20.3515625 16.859375 C-20.45253375 11.70984133 -19.2091442 8.96183438 -16 5 C-10.58420856 0.22894564 -7.09115125 -0.64682799 0 0 Z " fill="#F0F2F4" transform="translate(404,64)"/>
<path d="M0 0 C4.0743356 0.84881992 5.54405875 2.30225596 8 5.625 C8.625 8.625 8.625 8.625 8 11.625 C5.54405875 14.94774404 4.0743356 16.40118008 0 17.25 C-4.0743356 16.40118008 -5.54405875 14.94774404 -8 11.625 C-8.625 8.625 -8.625 8.625 -8 5.625 C-5.54405875 2.30225596 -4.0743356 0.84881992 0 0 Z " fill="#EBF0F5" transform="translate(80,135.375)"/>
<path d="M0 0 C4.0743356 0.84881992 5.54405875 2.30225596 8 5.625 C8.625 8.625 8.625 8.625 8 11.625 C5.54405875 14.94774404 4.0743356 16.40118008 0 17.25 C-4.0743356 16.40118008 -5.54405875 14.94774404 -8 11.625 C-8.625 8.625 -8.625 8.625 -8 5.625 C-5.54405875 2.30225596 -4.0743356 0.84881992 0 0 Z " fill="#EBF0F5" transform="translate(48,135.375)"/>
<path d="M0 0 C2.0625 1.5625 2.0625 1.5625 3 4 C3.17821261 6.85140177 2.92914963 9.292848 2 12 C-0.93837168 14.85194898 -2.53597436 15 -6.625 15 C-10 14 -10 14 -12 11.875 C-13.30782688 8.11499772 -13.06090617 5.81926223 -12 2 C-8.81688665 -2.07438508 -4.54417813 -1.38635943 0 0 Z " fill="#025CC6" transform="translate(117,137)"/>
</svg>
